<?xml version="1.0" encoding="utf-8"?>
<!-- Generator: Adobe Illustrator 24.0.2, SVG Export Plug-In . SVG Version: 6.00 Build 0)  -->
<svg version="1.1" id="Capa_1" xmlns="http://www.w3.org/2000/svg" xmlns:xlink="http://www.w3.org/1999/xlink" x="0px" y="0px"
	 viewBox="0 0 479.1 98.4" style="enable-background:new 0 0 479.1 98.4;" xml:space="preserve">
<style type="text/css">
	.st0{fill:#A8D42E;}
	.st1{fill:#177466;}
	.st2{fill:#242222;}
</style>
<g>
	<g>
		<path class="st0" d="M74.1,19.7C47.8,19.7,38,35.5,38,35.5s-0.8,2.5,1.2,3.2s3-0.6,3.1-0.8c9.9-11.4,23.4-12.7,31.4-12
			c22.1,1.9,29.7,14.4,29.8,23.9c0.1,9.8-9.2,21.5-31.9,22.9c0,0-17.8,1.3-29-12c-0.4-0.8-1.6-1.9-3.4-1S38,62.8,38,62.8
			s8.3,14,33.8,15.9c13.3,0.9,42.4-4.5,44.8-28.7C117.7,39.8,107.2,19.6,74.1,19.7z"/>
	</g>
	<g>
		<path class="st1" d="M70.8,6.7c37.8,0.1,51.9,22.8,51.9,22.8s1.2,3.6-1.8,4.7c-2.9,1.1-4.3-0.8-4.5-1.1
			c-14.2-16.4-33.7-18.4-45.3-17.4c-31.8,2.7-42.7,20.7-42.8,34.4c-0.1,14.1,13.2,31,45.9,33c0,0,25.6,1.9,41.8-17.3
			c0.5-1.2,2.3-2.7,4.9-1.5c2.6,1.2,1.8,4.4,1.8,4.4s-12,20.2-48.7,22.8C54.8,93,12.9,85.2,9.4,50.3C7.9,35.6,23.1,6.6,70.8,6.7z"/>
	</g>
	<g>
		<path class="st1" d="M85.1,48.9c0,7-5.7,12.6-12.6,12.6s-12.6-5.7-12.6-12.6c0-7,5.7-12.6,12.6-12.6C79.4,36.3,85.1,42,85.1,48.9z
			"/>
	</g>
	<g>
		<g>
			<path class="st2" d="M477.6,34.3c-1.1,1.1-2.4,1.6-4,1.6c-1.5,0-2.9-0.5-4-1.6c-1.1-1.1-1.6-2.4-1.6-4c0-1.5,0.5-2.9,1.6-3.9
				c1.1-1.1,2.4-1.6,3.9-1.6s2.9,0.5,4,1.6s1.6,2.4,1.6,3.9C479.3,31.9,478.7,33.2,477.6,34.3z M470.3,26.9
				c-0.9,0.9-1.4,2.1-1.4,3.4s0.5,2.5,1.4,3.4c0.9,0.9,2.1,1.4,3.4,1.4s2.5-0.5,3.4-1.4c0.9-0.9,1.4-2.1,1.4-3.4s-0.5-2.5-1.4-3.4
				s-2.1-1.4-3.4-1.4C472.4,25.5,471.2,26,470.3,26.9z M473.6,27.2c0.8,0,1.3,0.1,1.7,0.2c0.6,0.3,1,0.8,1,1.6c0,0.5-0.2,1-0.6,1.2
				c-0.2,0.1-0.5,0.2-0.9,0.3c0.5,0.1,0.8,0.3,1.1,0.6c0.2,0.3,0.3,0.6,0.3,1v0.4c0,0.1,0,0.3,0,0.5s0,0.3,0.1,0.3v0.1h-1
				c0,0,0,0,0-0.1c0,0,0,0,0-0.1V33v-0.5c0-0.7-0.2-1.2-0.6-1.4c-0.2-0.1-0.6-0.2-1.2-0.2h-0.9v2.4h-1.1v-6.1
				C471.5,27.2,473.6,27.2,473.6,27.2z M474.7,28.2c-0.3-0.2-0.7-0.2-1.3-0.2h-0.9v2.2h1c0.5,0,0.8,0,1-0.1c0.4-0.2,0.6-0.5,0.6-1
				C475.1,28.7,475,28.4,474.7,28.2z"/>
		</g>
		<g>
			<path class="st2" d="M167.4,30.6c13.9,0,20.8,6.9,19.7,10.8c-0.7,2.6-3.3,4.9-6.9,4.9c-7,0-3.5-6.9-14.6-6.9
				c-7.6,0-11.7,3.7-14.1,12.4c-0.7,3.9,0.1,12.8,10.5,12.8c9.5,0,10.7-7.4,16.5-7.4c4.6,0,6.8,2.4,6.2,4.6
				c-1.6,5.8-10.5,12.6-27.7,11.4c-17.4-1.2-23.5-12.3-19.3-24.5C141,37.6,150.3,30.6,167.4,30.6z"/>
		</g>
		<g>
			<path class="st2" d="M449.1,30.6c13.9,0,20.8,6.9,19.7,10.8c-0.7,2.6-3.3,4.9-6.9,4.9c-7,0-3.5-6.9-14.6-6.9
				c-7.6,0-11.7,3.7-14.1,12.4c-0.6,4,0.1,12.9,10.6,12.9c9.5,0,10.7-7.4,16.5-7.4c4.6,0,6.8,2.4,6.2,4.6
				c-1.6,5.8-10.5,12.6-27.7,11.4c-17.4-1.2-23.5-12.3-19.3-24.5C422.7,37.6,432,30.6,449.1,30.6z"/>
		</g>
		<g>
			<path class="st2" d="M217.3,30.7c18.3,0.3,26.6,11,22.8,24.9c-3.5,12.9-14.3,17.9-31.1,17.9c-17.6,0-25.3-11.2-22.4-23.4
				C189,40.4,197.8,30.4,217.3,30.7z M211.4,65c8.8-0.1,13.2-4.4,14.7-12.2c1.4-7.4-2.6-13.4-9.8-13.7c-9.1-0.3-14.5,5.6-15.3,12.7
				C200.4,58.3,202.9,65,211.4,65z"/>
		</g>
		<g>
			<path class="st2" d="M393.3,30.7c18.3,0.3,26.6,11,22.8,24.9c-3.5,12.9-14.3,17.9-31.1,17.9c-17.6,0-25.3-11.2-22.4-23.4
				C365,40.4,373.8,30.4,393.3,30.7z M387.4,65c8.8-0.1,13.2-4.4,14.7-12.2c1.4-7.4-2.6-13.4-9.8-13.7c-9.1-0.3-14.5,5.6-15.3,12.7
				C376.3,58.3,378.8,65,387.4,65z"/>
		</g>
		<g>
			<path class="st2" d="M271.2,70.4c-1.8,3.2-6.5,3.1-10,3.1s-8-0.6-8.5-3.8L242.2,39c-0.2-1.3-0.5-1.9-0.3-2.8
				c0.8-3.8,5-5.4,7.8-5.4c3,0,6.2,1,6.9,4.4l6.7,26h0.2l13.3-25.6c1.9-4.2,5.8-4.8,8.4-4.8c2.8,0,6.6,2.4,5.8,6.1
				c-0.2,0.9-0.6,2-1.4,3.3L271.2,70.4z"/>
		</g>
		<g>
			<path class="st2" d="M293,36.3c0.7-3.3,3.4-5.6,6.8-5.6s8.2-0.6,8.2,5.8l-4.1,31.6c-1.3,4.6-4.9,5.4-8.3,5.4s-7.3-1.8-6.5-5.2
				L293,36.3z"/>
		</g>
		<g>
			<g>
				<path class="st2" d="M311.8,36c0.8-3.8,3.9-5.3,7.9-5.3s5.8,2.4,5.5,5.6l-0.3,1.6h0.5c4.5-4.7,13.4-8.2,22.3-6.9
					c9,1.3,15.2,4.9,12.5,17.8l-2.1,18c-0.9,5.8-4.2,6.8-9.1,6.8s-6.4-3.2-5.7-6.6l2.3-19c1.1-5.1-2.6-7.8-8-7.8
					c-4.4,0-11.1,1.9-12.4,8.2l-2.5,19.2c-0.7,4.4-3.5,6-8.4,6c-6.1,0-6.9-3.7-6.2-7.1L311.8,36z"/>
			</g>
		</g>
	</g>
</g>
</svg>
