<svg xmlns="http://www.w3.org/2000/svg" width="264" height="244" viewBox="0 0 264 244"><defs><style>.a{fill:#6a6a6a;font-size:30px;}.a,.c{font-family:Lato-Regular, Lato;}.b{fill:#213b7d;font-family:Lato-Bold, Lato;font-weight:700;}.c{font-size:20px;font-weight:400;}.d,.f{fill:#1cb0d3;}.d{font-size:100px;font-family:Lato-Black, Lato;font-weight:800;}.e{font-size:80px;}</style></defs><g transform="translate(0.5)"><text class="a" transform="translate(4.5 164)"><tspan x="29.97" y="30">Empresas usan</tspan><tspan class="b"><tspan x="48.735" y="66">Covifactura</tspan><tspan class="c" y="66"></tspan></tspan></text><text class="d" transform="translate(131.5 154)"><tspan x="-131.36" y="0">+</tspan><tspan class="e" y="0">2.000</tspan></text><g transform="translate(89)"><path class="f" d="M2110.535,1571.114h-34.718v13.221c1.167,0,2.213-.021,3.259,0,2.432.058,3.095.7,3.1,3.164.017,12.651-.006,25.3.024,37.954,0,1.573-.376,2.875-2.122,2.883s-2.147-1.285-2.143-2.862c.029-11.127.013-22.254.012-33.381v-3.142h-28.157v11.426c0,2.591.01,5.182,0,7.774-.013,2.743-.4,3.125-3.218,3.134-3.95.013-7.9,0-12.218,0,0,1.3,0,2.4,0,3.506q.005,6.17.01,12.34c0,1.542-.208,3.117-2.165,3.107-1.92-.01-2.176-1.516-2.168-3.1.033-5.715.084-11.431.024-17.145-.022-2.173.894-3,3.016-2.964,4.094.073,8.19.021,12.544.021v-9.3c0-3.429-.017-6.859,0-10.289.016-2.491.614-3.084,3.115-3.089q9.946-.017,19.891,0h2.724c.05-.989.123-1.8.125-2.6q.02-6.173,0-12.346c-.007-1.752.7-2.7,2.574-2.7q19.091.031,38.182,0c1.995,0,2.674,1.038,2.665,2.871-.024,4.954-.007,9.907-.006,14.861q0,20.235-.006,40.469c0,.756.175,1.7-.2,2.222a3.381,3.381,0,0,1-2.21,1.458c-.623.011-1.435-.927-1.842-1.63-.3-.519-.094-1.338-.094-2.024q0-25.492,0-50.986Z" transform="translate(-2029.952 -1546.243)"/><path class="f" d="M2129.533,1526.245H2099.69v2.658c0,7.538.059,15.076-.062,22.612a3.93,3.93,0,0,1-1.5,2.883c-1.33.809-2.774-.366-2.784-2.208-.05-9.288-.031-18.578-.011-27.866a2.136,2.136,0,0,1,2.411-2.386q16.9.01,33.805,0a2.134,2.134,0,0,1,2.388,2.405q.017,5.482.008,10.963c0,1.494-.4,2.928-2.134,2.928-1.848,0-2.272-1.491-2.277-3.074C2129.527,1532.274,2129.533,1529.386,2129.533,1526.245Z" transform="translate(-2065.383 -1521.938)"/><path class="f" d="M2050.106,1528.2a13.493,13.493,0,0,1,2.413-.486c2.814-.06,5.632-.036,8.447-.018,2.653.017,3.185.544,3.189,3.24.013,7.916-.012,15.831.012,23.747,0,1.626-.342,3.027-2.251,3-1.932-.03-2.162-1.521-2.157-3.092.017-6.622.009-13.243.009-19.865,0-.824,0-1.648,0-2.78-3.665,0-7.138.023-10.611-.017a16.729,16.729,0,0,1-2.393-.365Z" transform="translate(-2039.037 -1525.052)"/><path class="f" d="M2034.016,1545a13.647,13.647,0,0,1,.229,1.777q.021,15.508.01,31.017c0,.3.023.609,0,.912-.088,1.409-.823,2.553-2.219,2.254a3.37,3.37,0,0,1-1.994-2.215,20.576,20.576,0,0,1-.1-4.54c0-7.754-.01-15.509.013-23.263a24.9,24.9,0,0,1,.289-2.678Z" transform="translate(-2029.867 -1534.454)"/><path class="f" d="M2034.237,1535.866l-3.769,3.263c-.083-3.14-.235-6.28-.185-9.418.009-.546.872-1.539,1.346-1.542,3.175-.019,6.351.173,9.527.3l-3.341,3.361-3.162.622C2034.521,1533.532,2034.379,1534.7,2034.237,1535.866Z" transform="translate(-2030.087 -1525.319)"/><path class="f" d="M2111.923,1683.886c1.484.3,2.935.224,3.785.9a2.98,2.98,0,0,1-.023,2.922c-.869.656-2.316.547-3.762.8Z" transform="translate(-2074.396 -1609.823)"/><path class="f" d="M2087.294,1688.654v-3.878h3.933v3.878Z" transform="translate(-2061.031 -1610.306)"/><path class="f" d="M2182.2,1684.858v3.88h-3.8v-3.88Z" transform="translate(-2110.475 -1610.35)"/><path class="f" d="M2154.222,1684.7h3.85v3.9h-3.85Z" transform="translate(-2097.351 -1610.265)"/><path class="f" d="M2115.688,1640.948h-4.495c.192-1.328,0-2.836.663-3.626a3.1,3.1,0,0,1,3.085-.049C2115.621,1638.051,2115.46,1639.562,2115.688,1640.948Z" transform="translate(-2074 -1584.317)"/><path class="f" d="M2111.831,1661.032h3.848v3.906h-3.848Z" transform="translate(-2074.347 -1597.421)"/><path class="f" d="M2178.41,1661.118h3.772v3.906h-3.772Z" transform="translate(-2110.477 -1597.467)"/><path class="f" d="M2158.069,1617.921h-3.777v-3.883h3.777Z" transform="translate(-2097.389 -1571.918)"/><path class="f" d="M2087.36,1641.225v-3.695h3.831v3.695Z" transform="translate(-2061.067 -1584.667)"/><path class="f" d="M2178.359,1590.224h3.821v3.841h-3.821Z" transform="translate(-2110.45 -1558.995)"/><path class="f" d="M2158.048,1594.225h-3.814V1590.4h3.814Z" transform="translate(-2097.358 -1559.093)"/><path class="f" d="M2087.225,1665.043v-3.755h3.9v3.755Z" transform="translate(-2060.994 -1597.559)"/><path class="f" d="M2154.212,1665.044v-3.783h3.855v3.783Z" transform="translate(-2097.346 -1597.545)"/><path class="f" d="M2178.324,1617.926v-3.835h3.789v3.835Z" transform="translate(-2110.431 -1571.947)"/><path class="f" d="M2182.143,1641.353h-3.729V1637.6h3.729Z" transform="translate(-2110.479 -1584.705)"/><path class="f" d="M2158.133,1637.6v3.743h-3.82V1637.6Z" transform="translate(-2097.4 -1584.703)"/></g></g></svg>