<svg xmlns="http://www.w3.org/2000/svg" width="255" height="250.745" viewBox="0 0 255 250.745"><defs><style>.a,.e,.f{fill:#135aa3;}.a{font-size:30px;}.a,.c{font-family:Lato-Regular, Lato;}.b{font-family:Lato-Bold, Lato;font-weight:700;}.c{font-size:20px;font-weight:400;}.d{fill:#1cb0d3;font-size:100px;font-family:Lato-Black, Lato;font-weight:800;}.e{font-size:80px;}</style></defs><g transform="translate(0 -101.296)"><text class="a" transform="translate(0 272.041)"><tspan x="63.27" y="30">años en la</tspan><tspan class="b"><tspan x="67.425" y="66">industria</tspan><tspan class="c" y="66"></tspan></tspan></text><text class="d" transform="translate(127.5 261.041)"><tspan x="-75.4" y="0">+</tspan><tspan class="e" y="0">70</tspan></text><g transform="translate(-0.5)"><g transform="translate(81 101.296)"><path class="f" d="M1781.663,1215.936l1.171-5.832,1.233.008,1.024,5.515H1809.8a11.512,11.512,0,0,1,.223-2.56,20.99,20.99,0,0,1,1.37-2.823,30.651,30.651,0,0,1,1.206,2.992,12.248,12.248,0,0,1,.18,2.416h24.74l.942-5.466,1.292-.087c.373,1.794.746,3.588,1.216,5.846,1.786,0,3.673-.07,5.554.012,6.79.3,11.5,5.005,11.531,11.814q.118,26.143.006,52.288c-.027,6.8-4.681,11.784-11.492,11.825q-35.338.212-70.679-.014c-6.908-.049-11.335-5.154-11.351-12.322q-.06-25.423,0-50.846c.015-8.112,4.625-12.674,12.779-12.765C1778.747,1215.922,1780.174,1215.936,1781.663,1215.936Zm-14.454,20.5c0,15.15-.125,29.921.072,44.688.064,4.77,4.177,8.161,9.309,8.174q34.611.08,69.221,0c5.993-.015,9.567-3.722,9.608-9.759.058-8.532.022-17.065.024-25.6,0-5.751,0-11.5,0-17.5Zm.28-3.114h87.634c1.369-11.632-3.532-16.442-14.834-14.205.417,1.186.507,2.6,1.258,3.354,2.162,2.174,2.635,4.449.494,6.624a3.807,3.807,0,0,1-5.808-.1c-2.1-2.261-1.588-4.589.7-6.576.346-.3.891-.9.8-1.088-.473-.97-1.11-2.633-1.721-2.647-7.67-.18-15.346-.118-24.031-.118.958,1.95,1.368,3.34,2.21,4.382,1.714,2.12,1.959,4.214.014,6.107a3.889,3.889,0,0,1-5.822-.02c-1.962-1.916-1.637-4,.058-6.1.836-1.039,1.234-2.432,2.17-4.37-8.316,0-15.63-.035-22.944.043a9.914,9.914,0,0,0-2.817.922c.361,1.048.445,2.357,1.137,3.095,1.977,2.11,2.366,4.279.394,6.37a3.811,3.811,0,0,1-5.807.1c-2.029-2.016-1.648-4.21.211-6.4.808-.95,1.012-2.413,1.572-3.853C1769.976,1217.712,1766.1,1221.653,1767.489,1233.323Z" transform="translate(-1764.512 -1210.099)"/></g><text class="a" transform="translate(81 131.697)"><tspan x="12" y="30">1952</tspan></text></g></g></svg>