<svg xmlns="http://www.w3.org/2000/svg" width="504" height="80" viewBox="0 0 504 80"><defs><style>.a{fill:#135aa3;}.b,.c{fill:#fff;}.c{font-size:16px;font-family:Lato-Regular, Lato;}</style></defs><g transform="translate(-101 -866)"><rect class="a" width="504" height="80" rx="15" transform="translate(101 866)"/><g transform="translate(142.51 878)"><g transform="translate(21.779 0)"><g transform="translate(0 0)"><path class="b" d="M162.983,8.906,155.806.541c-.014-.016-.028-.031-.043-.046A1.707,1.707,0,0,0,153.45.411l-5.719,4.938a1.678,1.678,0,0,0-.173,2.368l.224.259-.369.319a4.23,4.23,0,0,1-3.941.676c-.03-.009-4.266-1.211-4.3-1.218a6.166,6.166,0,0,0-4.677.768c-.031.018-10.96,6.273-10.99,6.293-2.977,1.939-1.544,5.28.727,5.643a2.971,2.971,0,0,0,5.206,1.821c4.378-5.059,4.234-4.839,4.463-5.3l.167-.069a2.761,2.761,0,0,0,2.035,1.98c5.117,1.451,6.144,1.859,7.564,1.7,3.967-.425,4.876-.555,6.874-1.705a31.505,31.505,0,0,0,4.168-2.879l.244.282a1.678,1.678,0,0,0,2.368.173l5.444-4.7A2.03,2.03,0,0,0,162.983,8.906ZM128.2,21.2a1.326,1.326,0,0,1-2.324-.91l4.848-2.006Zm21.526-3.742c-1.7.978-2.272,1.071-6.214,1.494-1.081.116-1.937-.223-6.958-1.647a1.1,1.1,0,0,1-.883-.771,1.557,1.557,0,0,1-.035-.65,1.213,1.213,0,0,1,.2-.445.691.691,0,0,1,.747-.265c1.553.214,5.25.708,5.287.713a.821.821,0,0,0,.218-1.627c-.037,0-3.731-.5-5.281-.712a2.386,2.386,0,0,0-2.642,1.542l-1.2.493s-7.291,3.042-8.018,3.252c-1.32.185-2.223-1.532-.564-2.639l10.946-6.266h0l.039-.024a4.5,4.5,0,0,1,3.412-.562l4.239,1.2a5.859,5.859,0,0,0,5.461-1.013l.369-.319,4.787,5.545A29.863,29.863,0,0,1,149.727,17.462Zm11.97-6.944c-.044.038-5.459,4.741-5.5,4.7s-7.44-8.585-7.4-8.623l5.719-4.938h0a.06.06,0,0,1,.07-.005l7.145,8.327A.386.386,0,0,1,161.7,10.518Z" transform="translate(-121.824 0)"/></g></g><g transform="translate(34.287 24.005)"><path class="b" d="M238.963,222.815v-1.761c.671.05.9.37,1.181.37.37,0,.53-.46.53-.691,0-.58-1.061-.77-1.711-.791v-.26c0-.13-.17-.25-.34-.25-.19,0-.34.12-.34.25v.28a1.951,1.951,0,0,0-1.941,1.951c0,1.281,1.031,1.671,1.941,2.011v1.991c-.881-.1-1.181-.751-1.561-.751-.31,0-.561.42-.561.7,0,.56.911,1.211,2.122,1.241v.28c0,.13.15.25.34.25.17,0,.34-.12.34-.25v-.31a2.041,2.041,0,0,0,1.891-2.122C240.854,223.6,239.854,223.146,238.963,222.815Zm-.6-.22c-.46-.18-.8-.37-.8-.811,0-.38.3-.62.8-.7Zm.521,3.312v-1.741c.43.19.75.43.75.921A.818.818,0,0,1,238.883,225.908Z" transform="translate(-236.161 -219.433)"/></g><g transform="translate(9.49 32.746)"><path class="b" d="M48.883,302.175a2.971,2.971,0,0,0-5.206-1.821l-4.051,4.681a2.94,2.94,0,0,0-.412.621l-.167.069a2.761,2.761,0,0,0-2.035-1.98c-5.381-1.526-6.082-1.832-7.548-1.7l-.016,0c-3.967.425-4.877.555-6.875,1.705a31.5,31.5,0,0,0-4.168,2.879l-.244-.282a1.681,1.681,0,0,0-2.368-.173l-5.741,4.956a1.625,1.625,0,0,0-.16,2.3l7.566,8.622a1.58,1.58,0,0,0,2.195.182l.015-.013,5.719-4.938a1.678,1.678,0,0,0,.174-2.368l-.224-.259.369-.318a4.231,4.231,0,0,1,3.941-.676L33.8,314.84a.821.821,0,1,0,.448-1.579L30.1,312.082a5.859,5.859,0,0,0-5.461,1.013l-.369.318-3.159-3.659-1.628-1.886a29.844,29.844,0,0,1,3.914-2.7c1.7-.979,2.273-1.072,6.223-1.495,1.116-.1,1.732.168,6.949,1.648a1.1,1.1,0,0,1,.883.771,1.556,1.556,0,0,1,.035.65,1.215,1.215,0,0,1-.2.445.692.692,0,0,1-.747.265c-1.553-.214-5.25-.708-5.287-.713a.821.821,0,0,0-.218,1.627c.037,0,3.731.5,5.281.712a2.937,2.937,0,0,0,.4.028,2.382,2.382,0,0,0,2.241-1.57l1.2-.494s7.052-2.9,7.14-2.949a3.172,3.172,0,0,1,.878-.3c1.32-.185,2.223,1.532.564,2.639-11.529,6.6-11.27,6.459-11.27,6.459a.821.821,0,1,0,.787,1.44l11.361-6.512C52.586,305.88,51.155,302.539,48.883,302.175ZM24.319,315.988c.038.044-5.619,4.9-5.663,4.939l-7.518-8.568,5.728-4.946a.037.037,0,0,1,.053,0Zm18.075-11.644,2.524-2.916a1.326,1.326,0,0,1,2.324.91Z" transform="translate(-9.49 -299.328)"/></g><g transform="translate(29.81 21.311)"><g transform="translate(0)"><path class="b" d="M208.082,202.625a.82.82,0,0,0-1.025.544,5.2,5.2,0,1,1-.085-3.308.821.821,0,1,0,1.542-.562,6.846,6.846,0,1,0,.112,4.351A.821.821,0,0,0,208.082,202.625Z" transform="translate(-195.24 -194.8)"/></g></g></g><text class="c" transform="translate(229.729 877)"><tspan x="0" y="16" xml:space="preserve">Lo apoyamos para que fortalezca  su canal comercial, </tspan><tspan x="0" y="35">mediante el otorgamiento de cupos rotativos en </tspan><tspan x="0" y="54">línea para empresas y personas naturales.</tspan></text></g></svg>