<svg xmlns="http://www.w3.org/2000/svg" width="504" height="80" viewBox="0 0 504 80"><defs><style>.a{fill:#213b7d;}.b,.c{fill:#fff;}.b{font-size:16px;font-family:Lato-Regular, Lato;}</style></defs><g transform="translate(-101 -971)"><rect class="a" width="504" height="80" rx="15" transform="translate(101 971)"/><text class="b" transform="translate(230.729 983)"><tspan x="0" y="16">Incremente sus ventas recibiendo las </tspan><tspan x="0" y="35">ganancias a tiempo y sin poner en riesgo su </tspan><tspan x="0" y="54">cartera.</tspan></text><g transform="translate(149.396 981)"><path class="c" d="M41.466,11.333H37.733v-2.8a6.533,6.533,0,0,0-13.066,0v2.8H20.933a.933.933,0,0,0-.933.933V32.8a2.808,2.808,0,0,0,2.8,2.8H34.933V33.732H22.8a.933.933,0,0,1-.933-.933v-.933H34.933V30H21.867V13.2h2.8V16h1.867V13.2h9.333V16h1.867V13.2h2.8V16H42.4V12.266A.933.933,0,0,0,41.466,11.333Zm-5.6,0H26.533v-2.8a4.667,4.667,0,1,1,9.333,0Z" transform="translate(-1.232)"/><path class="c" d="M55.733,19h-16.8a.933.933,0,0,0-.933.933v14a2.808,2.808,0,0,0,2.8,2.8H53.866a2.808,2.808,0,0,0,2.8-2.8v-14A.933.933,0,0,0,55.733,19ZM54.8,33.933a.933.933,0,0,1-.933.933H40.8a.933.933,0,0,1-.933-.933V33H54.8Zm0-2.8H39.867V20.867H54.8Z" transform="translate(-2.433 -1.134)"/><path class="c" d="M47.667,29.533a4.672,4.672,0,0,0,4.667-4.667V23H50.466v1.867a2.8,2.8,0,0,1-5.6,0V23H43v1.867a4.672,4.672,0,0,0,4.667,4.667Z" transform="translate(-2.766 -1.401)"/><path class="c" d="M58.276,44.275a3.835,3.835,0,0,0-4.831-1.924l-8.334,3.033a3.733,3.733,0,0,0-2.962-2.762L30.89,40.637a14.016,14.016,0,0,0-7.219.632l-1.45.533a15.789,15.789,0,0,0-3.827,2.034l-.206-.567a.933.933,0,0,0-1.2-.56L6.468,46.535a.933.933,0,0,0-.56,1.2l-4.387,1.6.638,1.754,4.387-1.6,3.807,10.461,1.754-.638L7.985,47.971l8.773-3.192,4.789,13.16-2.24.817.638,1.753,3.115-1.139a.933.933,0,0,0,.56-1.2L23.3,57.3l2.147-.782a10.213,10.213,0,0,1,4.221-.6l4.428.307a11.985,11.985,0,0,0,4.989-.7l17.061-6.209a3.733,3.733,0,0,0,2.129-5.04Zm-1.715,2.317a1.852,1.852,0,0,1-1.052.966l-17.061,6.21a10.166,10.166,0,0,1-4.221.595L29.8,54.056a12.1,12.1,0,0,0-4.988.7l-2.152.783-3.6-9.886a13.927,13.927,0,0,1,3.8-2.106l1.448-.527a12.147,12.147,0,0,1,6.258-.548L41.82,44.461a1.867,1.867,0,1,1-.648,3.676l-10.11-1.783-.325,1.839,10.111,1.783a3.716,3.716,0,0,0,4.205-2.585L54.08,44.1a1.988,1.988,0,0,1,2.489.933,1.876,1.876,0,0,1-.008,1.555Z" transform="translate(0 -2.563)"/></g></g></svg>