<svg xmlns="http://www.w3.org/2000/svg" width="62" height="62" viewBox="0 0 62 62"><defs><style>.a{fill:#1cb0d3;}</style></defs><g transform="translate(14.721 7.79)"><path class="a" d="M167.074,65.014a2.336,2.336,0,0,0-3.3,0L135.737,92.968,125.623,81.983a2.337,2.337,0,1,0-3.438,3.165l11.761,12.773a2.334,2.334,0,0,0,1.669.753h.05a2.339,2.339,0,0,0,1.65-.682l29.754-29.676A2.336,2.336,0,0,0,167.074,65.014Z" transform="translate(-121.568 -64.327)"/></g><path class="a" d="M59.663,28.663A2.336,2.336,0,0,0,57.327,31,26.327,26.327,0,1,1,31,4.673,2.337,2.337,0,1,0,31,0,31,31,0,1,0,62,31,2.337,2.337,0,0,0,59.663,28.663Z"/></svg>