<svg xmlns="http://www.w3.org/2000/svg" width="303" height="261.041" viewBox="0 0 303 261.041"><defs><style>.a,.d,.g,.h{fill:#135aa3;}.a,.d{font-size:30px;}.a,.c{font-family:Lato-Bold, Lato;font-weight:700;}.b,.d{font-family:Lato-Regular, Lato;}.b{font-weight:400;}.e{font-size:20px;}.f{fill:#1cb0d3;font-size:100px;font-family:Lato-Black, Lato;font-weight:800;}.g{font-size:80px;}</style></defs><g transform="translate(-835.5 -91)"><g transform="translate(22.5 -755.959)"><text class="a" transform="translate(814 1027)"><tspan x="17.165" y="30">compradores</tspan><tspan class="b"><tspan x="5.825" y="66">a nivel</tspan><tspan class="c" y="66"> </tspan><tspan y="66">nacional</tspan></tspan></text><text class="d" transform="translate(861 987)"><tspan x="107.505" y="30">mil</tspan><tspan class="e" y="30">​</tspan></text><text class="f" transform="translate(889 1016)"><tspan x="-75.4" y="0">+</tspan><tspan class="g" y="0">70</tspan></text></g><g transform="translate(-452.317 -1397.5)"><path class="h" d="M1389.768,1488.5c1.319.248,2.639.491,3.956.749a4.366,4.366,0,0,1,.651.249c-.972.263-1.832.544-2.713.721s-1.054.664-.952,1.482c.14,1.121.163,2.257.246,3.556-2.047-.823-2.715-2.567-3.542-4.266a18.189,18.189,0,0,0-7.865,2.828c-1.17.734-2.235,1.633-3.379,2.412-.5.34-.521.653-.285,1.173a7.412,7.412,0,0,1,.582,1.878,4.026,4.026,0,0,1-1.122,3.992c5.65,7.221,9.475,15.352,12.745,23.824a2.547,2.547,0,0,0,1.792-1.676,45.032,45.032,0,0,0,2.38-10.715,120.5,120.5,0,0,0,.666-16.135c-.031-2.14-.181-4.278-.308-6.415-.036-.6.152-.859.761-1.039,6.5-1.916,12.219-.109,17.508,3.67a32.181,32.181,0,0,1,7.225,7.112c-5.633,5.423-9.584,12.012-12.887,19.075a25.277,25.277,0,0,1,2.907.4,6.046,6.046,0,0,1,4.7,6.262,25.342,25.342,0,0,1-.463,4.1c-.085.508-.011.733.444.947,3.672,1.727,4.82,5.938,4.281,9.286a4.792,4.792,0,0,0,.806,4.156c1.917,2.555,1.8,5.587.731,8.474a3.855,3.855,0,0,0,.258,3.61c1.511,2.767,2.051,5.71.034,8.529a9.054,9.054,0,0,1-5.439,3.521c-5.621,1.306-11.271,2.492-16.923,3.661-4.947,1.023-9.921,1.918-14.867,2.949-2.693.562-5.353,1.29-8.112,1.963l.733,2.373c-1.846.611-3.648,1.2-5.446,1.8-2.448.823-4.892,1.657-7.338,2.486h-.189q-2.729-8.313-5.456-16.628-3.5-10.732-6.979-21.473a5.014,5.014,0,0,1-.1-.526l12.939-4.227,1,2.986a5.531,5.531,0,0,0,2.905-2.562c1.315-2.42,2.519-4.9,3.667-7.41,1.531-3.341,2.959-6.723,5.314-9.612a17.247,17.247,0,0,1,7.468-5.419c.167-.062.322-.156.573-.279-3.382-7.482-7.42-14.457-13.546-20.354,1.542-1.61,3.007-3.285,4.625-4.795a24.437,24.437,0,0,1,9.625-5.774c1.4-.42,2.863-.625,4.3-.929Zm-17.446,85.852c4.785-1.029,9.431-2.11,14.112-3.014,7.276-1.406,14.581-2.666,21.863-4.044a16.56,16.56,0,0,0,6.069-2.245,3.2,3.2,0,0,0,1.568-2.933,7.178,7.178,0,0,0-1.844-4.345,1.835,1.835,0,0,1-.218-2.4,9.386,9.386,0,0,0,.832-1.891c1.051-2.974.464-5.087-1.939-7.162-.18-.155-.412-.394-.408-.59a5.236,5.236,0,0,1,.224-1.79c1.609-4.051.391-6.89-3.624-8.264a1.334,1.334,0,0,1-1.027-1.4,10.9,10.9,0,0,1,.257-1.476,35.6,35.6,0,0,0,.7-4.245c.109-2.132-1.09-3.257-3.2-3.328a18.648,18.648,0,0,0-6.371,1.142,64.306,64.306,0,0,0-10.912,5.077c-1.611.877-2.491.419-2.982-1.35-.442-1.594-.98-3.161-1.49-4.786a13.475,13.475,0,0,0-6.035,4.575c-2.081,2.735-3.25,5.93-4.657,9.014-2.046,4.483-4.151,8.951-8.982,11.278Zm22.816-62.889c1.806-1.788,3.88-2.066,6.517-.789,2.4,1.161,3.444,3.031,3.156,5.367l7.022-11.073c-1.84-1.986-.97-4.219-.077-6.448a23.038,23.038,0,0,0-10.773-5.606c-.7-.132-1.094-.06-1.436.724-.809,1.858-1.9,3.515-4.408,3.712Zm9.4,5.407a5.013,5.013,0,0,1-5.448,1.222,6.34,6.34,0,0,1-4.247-3.691l-2.041,10.3a.318.318,0,0,0,.163-.027,36.648,36.648,0,0,1,9.087-3.218,1.009,1.009,0,0,0,.588-.518C1403.293,1519.595,1403.908,1518.229,1404.537,1516.87Zm-49.988,32.392,1.3,3.867,3.842-1.288-1.281-3.836Z" transform="translate(6.389 0)"/><path class="h" d="M1530.538,1600.8c-1.7-.233-3.089-.709-3.724-2.336a3.711,3.711,0,0,1,1.063-4.123,6.591,6.591,0,0,1,5.889-2.086c.823.107,1.32.334,1.2,1.332-.2,1.684-.241,3.386-.445,5.069a1.521,1.521,0,0,1-.748,1.046C1532.732,1600.148,1531.623,1600.444,1530.538,1600.8Z" transform="translate(-144.067 -84.043)"/></g></g></svg>