<svg xmlns="http://www.w3.org/2000/svg" width="130.263" height="24.049" viewBox="0 0 130.263 24.049"><defs><style>.a{fill:#a8d42e;}.b{fill:#177466;}.c{fill:#242222;}</style></defs><g transform="translate(-1.397 -0.499)"><g transform="translate(9.612 4.178)"><path class="a" d="M16.277,2.6C8.916,2.6,6.112,7.159,6.112,7.159a.543.543,0,0,0,.351.7.88.88,0,0,0,.876-.175,10.2,10.2,0,0,1,8.938-3.33c6.309.526,8.413,4.031,8.413,6.835s-2.629,6.134-8.938,6.485c0,0-5.083.351-8.237-3.33a.851.851,0,0,0-1.052-.526.779.779,0,0,0-.351.876s2.278,4.031,9.639,4.557c3.681.351,12.093-1.227,12.619-8.062C28.721,8.21,25.741,2.426,16.277,2.6Z" transform="translate(-6.084 -2.598)"/></g><g transform="translate(1.397 0.498)"><path class="b" d="M18.929.5C29.62.5,33.651,6.986,33.651,6.986s.351,1.052-.526,1.4S31.9,8.213,31.9,8.037A15.04,15.04,0,0,0,19.1,3.13C9.99,3.831,7.011,8.914,6.835,12.77c0,4.031,3.681,8.763,12.969,9.289,0,0,7.186.526,11.743-4.907a1,1,0,0,1,1.4-.351,1.157,1.157,0,0,1,.526,1.227s-3.33,5.784-13.846,6.485C14.2,24.863,2.279,22.76,1.4,12.77,1.227,8.563,5.433.326,18.929.5Z" transform="translate(-1.397 -0.498)"/></g><g transform="translate(16.124 9.089)"><path class="b" d="M16.46,8.73A3.33,3.33,0,1,1,13.13,5.4,3.328,3.328,0,0,1,16.46,8.73Z" transform="translate(-9.8 -5.4)"/></g><g transform="translate(37.48 6.986)"><g transform="translate(0 0.175)"><path class="c" d="M30.775,4.3c3.856,0,5.959,1.928,5.608,2.979a1.941,1.941,0,0,1-1.928,1.4c-1.928,0-1.052-1.928-4.206-1.928-2.1,0-3.33,1.052-4.031,3.505-.175,1.052,0,3.681,2.979,3.681,2.629,0,2.979-2.1,4.732-2.1,1.227,0,1.928.7,1.753,1.4-.526,1.577-2.979,3.505-7.887,3.155s-6.66-3.505-5.433-7.011C23.238,6.228,25.867,4.3,30.775,4.3Z" transform="translate(-21.985 -4.3)"/></g><g transform="translate(79.745 0.175)"><path class="c" d="M76.275,4.3c3.856,0,5.959,1.928,5.608,2.979a1.941,1.941,0,0,1-1.928,1.4c-1.928,0-1.052-1.928-4.206-1.928-2.1,0-3.33,1.052-4.031,3.505-.175,1.052,0,3.681,2.979,3.681,2.629,0,2.979-2.1,4.732-2.1,1.227,0,1.928.7,1.753,1.4-.526,1.577-2.979,3.505-7.887,3.155s-6.66-3.505-5.433-7.011C68.738,6.228,71.367,4.3,76.275,4.3Z" transform="translate(-67.485 -4.3)"/></g><g transform="translate(14.214 0.175)"><path class="c" d="M38.867,4.3c5.083,0,7.536,3.155,6.485,7.011-1.052,3.681-4.031,5.083-8.763,5.083-4.907,0-7.186-3.155-6.309-6.66C30.8,7.1,33.258,4.3,38.867,4.3Zm-1.753,9.815c2.454,0,3.681-1.227,4.206-3.505.351-2.1-.7-3.856-2.8-3.856-2.629-.175-4.031,1.577-4.382,3.681C33.96,12.187,34.661,14.115,37.114,14.115Z" transform="translate(-30.095 -4.3)"/></g><g transform="translate(63.989 0.175)"><path class="c" d="M67.267,4.3c5.083,0,7.536,3.155,6.485,7.011-1.052,3.681-4.031,5.083-8.763,5.083-4.907,0-7.186-3.155-6.309-6.66C59.2,7.1,61.658,4.3,67.267,4.3Zm-1.753,9.815c2.454,0,3.681-1.227,4.206-3.505.351-2.1-.7-3.856-2.8-3.856-2.629-.175-4.031,1.577-4.382,3.681C62.535,12.187,63.236,14.115,65.514,14.115Z" transform="translate(-58.495 -4.3)"/></g><g transform="translate(29.821)"><path class="c" d="M47.413,15.592c-.526.876-1.928.876-2.8.876-1.052,0-2.278-.175-2.454-1.052L39.175,6.654c0-.351-.175-.526-.175-.876A2.263,2.263,0,0,1,41.278,4.2a1.767,1.767,0,0,1,1.928,1.227l1.928,7.361h0L48.815,5.6a2.8,2.8,0,0,1,2.454-1.227c.876,0,1.928.7,1.577,1.753A2.961,2.961,0,0,1,52.5,7Z" transform="translate(-39 -4.2)"/></g><g transform="translate(43.122 0.17)"><path class="c" d="M47.835,5.879A1.907,1.907,0,0,1,49.763,4.3c1.052,0,2.278-.175,2.278,1.577l-1.227,9.114a2.194,2.194,0,0,1-2.278,1.577c-1.052,0-2.1-.526-1.928-1.4Z" transform="translate(-46.589 -4.297)"/></g><g transform="translate(48.521 0.175)"><path class="c" d="M50.775,5.877C50.95,4.826,51.826,4.3,53.053,4.3A1.471,1.471,0,0,1,54.63,5.877l-.175.526h.175A7.476,7.476,0,0,1,60.94,4.475c2.629.351,4.382,1.4,3.505,5.083l-.526,5.083c-.175,1.577-1.227,1.928-2.629,1.928s-1.753-.876-1.577-1.928l.7-5.433c.351-1.4-.7-2.278-2.278-2.278-1.227,0-3.155.526-3.505,2.278l-.7,5.433c-.175,1.227-1.052,1.753-2.454,1.753-1.753,0-1.928-1.052-1.753-1.928Z" transform="translate(-49.669 -4.3)"/></g></g></g></svg>