<svg xmlns="http://www.w3.org/2000/svg" width="56.701" height="55.95" viewBox="0 0 56.701 55.95"><defs><style>.a{fill:#fff;}</style></defs><g transform="translate(-95.051)"><g transform="translate(95.051 0)"><path class="a" d="M97.649,41.695l.087,4.139a1.321,1.321,0,0,0,1.7,1.237l3.966-1.2,3.966,1.2a1.321,1.321,0,0,0,1.7-1.237l.087-4.139,2.362-3.4a1.321,1.321,0,0,0-.651-2l-3.91-1.361-2.5-3.3a1.321,1.321,0,0,0-2.1,0l-2.5,3.3-3.91,1.361a1.321,1.321,0,0,0-.651,2Zm3.445-4.4a1.32,1.32,0,0,0,.618-.449l1.692-2.23,1.692,2.23a1.322,1.322,0,0,0,.618.449l2.645.921-1.6,2.3a1.319,1.319,0,0,0-.235.725l-.059,2.8-2.681-.809a1.317,1.317,0,0,0-.763,0l-2.681.809-.059-2.8a1.318,1.318,0,0,0-.235-.725l-1.6-2.3Z" transform="translate(-95.051 -25.629)"/><path class="a" d="M211.189,10.582l.087,4.139a1.321,1.321,0,0,0,1.7,1.237l3.967-1.193,3.967,1.193a1.321,1.321,0,0,0,1.7-1.237l.087-4.139,2.362-3.4a1.321,1.321,0,0,0-.649-2L220.5,3.816,218,.522A1.321,1.321,0,0,0,216.944,0h0a1.321,1.321,0,0,0-1.051.521l-2.509,3.3-3.907,1.367a1.321,1.321,0,0,0-.649,2Zm3.441-4.4a1.318,1.318,0,0,0,.615-.446l1.7-2.229,1.694,2.228a1.319,1.319,0,0,0,.616.448L221.9,7.1l-1.6,2.3a1.319,1.319,0,0,0-.236.726l-.059,2.8-2.682-.807a1.324,1.324,0,0,0-.761,0l-2.682.807-.059-2.8a1.318,1.318,0,0,0-.236-.726l-1.6-2.3Z" transform="translate(-188.594 0)"/><path class="a" d="M324.726,41.694l.091,4.141a1.321,1.321,0,0,0,1.7,1.235l3.965-1.2,3.96,1.2a1.321,1.321,0,0,0,1.7-1.236l.091-4.14,2.363-3.4a1.321,1.321,0,0,0-.651-2l-3.91-1.361-2.5-3.3a1.321,1.321,0,0,0-1.052-.522h0a1.322,1.322,0,0,0-1.052.522l-2.508,3.3-3.906,1.361a1.321,1.321,0,0,0-.651,2Zm3.444-4.4a1.321,1.321,0,0,0,.617-.448l1.7-2.232,1.693,2.231a1.321,1.321,0,0,0,.618.449l2.645.921-1.6,2.3a1.322,1.322,0,0,0-.235.724l-.062,2.8-2.678-.809a1.317,1.317,0,0,0-.764,0l-2.683.81-.062-2.8a1.321,1.321,0,0,0-.235-.723l-1.6-2.3Z" transform="translate(-282.137 -25.628)"/><path class="a" d="M188.067,126.34a18.472,18.472,0,1,0-5.416,13.074A18.355,18.355,0,0,0,188.067,126.34Zm-29.691-11.2a15.843,15.843,0,0,1,22.874,21.916,12.056,12.056,0,0,0-5.139-7.309,8.3,8.3,0,1,0-13.059,0,12.056,12.056,0,0,0-5.14,7.312,15.866,15.866,0,0,1,.463-21.919Zm5.546,9.488a5.66,5.66,0,1,1,5.66,5.661A5.667,5.667,0,0,1,163.921,124.626Zm-3.664,14.527a9.386,9.386,0,0,1,4.83-7.551,8.273,8.273,0,0,0,8.989,0,9.387,9.387,0,0,1,4.83,7.548A15.886,15.886,0,0,1,160.258,139.152Z" transform="translate(-141.232 -88.868)"/></g></g></svg>