<svg xmlns="http://www.w3.org/2000/svg" xmlns:xlink="http://www.w3.org/1999/xlink" width="390" height="496" viewBox="0 0 390 496"><defs><style>.a,.d{fill:#fff;}.b{fill:#135aa3;font-size:20px;font-family:Lato-Bold, Lato;font-weight:700;}.c{fill:#1cb0d3;}.d{font-size:16px;font-family:Lato-Semibold, Lato;font-weight:600;}.e,.h,.j{fill:none;}.e{stroke:#c4c4c4;}.f{fill:#c4c4c4;font-size:14px;}.f,.g{font-family:Lato-Regular, Lato;}.g{fill:#6a6a6a;font-size:10px;}.h{stroke:#707070;stroke-width:1.5px;}.i{stroke:none;}.k{filter:url(#a);}</style><filter id="a" x="0" y="0" width="390" height="496" filterUnits="userSpaceOnUse"><feOffset dy="3" input="SourceAlpha"/><feGaussianBlur stdDeviation="3" result="b"/><feFlood flood-opacity="0.161"/><feComposite operator="in" in2="b"/><feComposite in="SourceGraphic"/></filter></defs><g transform="translate(-445 -3200)"><g class="k" transform="matrix(1, 0, 0, 1, 445, 3200)"><path class="a" d="M21.471,0H350.529C362.387,0,372,7.282,372,16.265v445.47c0,8.983-9.613,16.265-21.471,16.265H21.471C9.613,478,0,470.718,0,461.735V16.265C0,7.282,9.613,0,21.471,0Z" transform="translate(9 6)"/></g><text class="b" transform="translate(640 3262)"><tspan x="-151.105" y="0">Contáctenos y pregúntenos cómo </tspan><tspan x="-82.28" y="24">podemos ayudarlo</tspan></text><g transform="translate(551 3584)"><rect class="c" width="178" height="50" rx="25"/><text class="d" transform="translate(89.165 31.5)"><tspan x="-22.044" y="0">Enviar</tspan></text></g><g transform="translate(510 3307)"><g class="e"><rect class="i" width="261" height="32" rx="8"/><rect class="j" x="0.5" y="0.5" width="260" height="31" rx="7.5"/></g><text class="f" transform="translate(10 22)"><tspan x="0" y="0">Nombre completo*</tspan></text></g><g transform="translate(510 3364)"><g class="e"><rect class="i" width="261" height="32" rx="8"/><rect class="j" x="0.5" y="0.5" width="260" height="31" rx="7.5"/></g><text class="f" transform="translate(10 22)"><tspan x="0" y="0">Nombre de la empresa*</tspan></text></g><g transform="translate(510 3421)"><g class="e"><rect class="i" width="261" height="32" rx="8"/><rect class="j" x="0.5" y="0.5" width="260" height="31" rx="7.5"/></g><text class="f" transform="translate(10 22)"><tspan x="0" y="0">Correo electrónico*</tspan></text></g><g transform="translate(510 3478)"><g class="e"><rect class="i" width="261" height="32" rx="8"/><rect class="j" x="0.5" y="0.5" width="260" height="31" rx="7.5"/></g><text class="f" transform="translate(10 22)"><tspan x="0" y="0">Celular*</tspan></text></g><text class="g" transform="translate(550 3545)"><tspan x="0" y="0">Al hacer clic en enviar, acepta nuestros términos,</tspan><tspan x="0" y="12">condiciones y políticas de privacidad.</tspan></text><g transform="translate(520 3539)"><g class="h"><rect class="i" width="16" height="16" rx="3"/><rect class="j" x="0.75" y="0.75" width="14.5" height="14.5" rx="2.25"/></g><g transform="translate(3.312 -50.6)"><path class="a" d="M9.1,56.79,4.155,61.737a.939.939,0,0,1-1.327,0L.274,59.183A.939.939,0,0,1,1.6,57.855l1.89,1.89,4.283-4.283A.939.939,0,0,1,9.1,56.79Z"/></g></g></g></svg>