<svg xmlns="http://www.w3.org/2000/svg" width="566" height="185" viewBox="0 0 566 185"><defs><style>.a{fill:#6a6a6a;font-size:20px;font-family:Lato-Light, Lato;font-weight:300;}.b{fill:#706f6f;}.b,.c{fill-rule:evenodd;}.c,.d{fill:#98979d;}</style></defs><g transform="translate(-923 -2921)"><text class="a" transform="translate(923 2921)"><tspan x="-140.29" y="20">&quot;Podemos contar con una cartera</tspan><tspan x="-142.06" y="44">más sana, una cartera más segura,</tspan><tspan x="-147.845" y="68">no encontramos tranquilos por que</tspan><tspan x="-98.465" y="92">Covifactura nos apoya.&quot;</tspan></text><g transform="translate(164.16 2647.943)"><g transform="translate(1032.75 407.396)"><path class="b" d="M1070.6,435.895a5.994,5.994,0,0,1,5.715,7.793H1070.6v1.2h5.187a5.991,5.991,0,1,1-5.187-8.99" transform="translate(-1064.608 -435.895)"/></g><g transform="translate(1017.84 395.12)"><path class="c" d="M1017.84,397.39h41.888v41.888h-4.909c.023-2.4.019-5.191-.067-6.612a6.36,6.36,0,0,0-3.265-5.719,13.29,13.29,0,0,0-2.661-1.184,14.277,14.277,0,0,0-10.085-24.383c-8.306,0-15.135,5.657-15.917,12.89a8.986,8.986,0,0,0-.075,1.388c0,.111,0,.216,0,.317v.006c0,.024,0,.047,0,.07v.008c0,.019-.006.036-.008.055v23.166h-4.909Zm11.831,18.267c0-4.471,4.062-8.1,9.07-8.1a8.1,8.1,0,0,1,0,16.2H1031.9v6.18h5.985c1.125,0,2.262-.037,3.385.041,3.176.223,5.38,1.314,6.248,3.547a7.831,7.831,0,0,1,.391,2.972v2.783h-18.237Zm9.07-6.981a6.981,6.981,0,1,0,6.981,6.981A6.982,6.982,0,0,0,1038.742,408.676Z" transform="translate(-1017.84 -397.39)"/></g><g transform="translate(1017.84 438.549)"><path class="c" d="M1044.286,533.834h6.008v2.5h-3.278V538.7h2.792v2.379h-2.792v2.748h3.336v2.5h-6.065Zm15.219,4.027h-2.52v-1.173c0-1.146-1.766-1.032-1.766-.039a1.384,1.384,0,0,0,.463,1.231c1.287,1.218,4,2.333,4.045,5.252a4.466,4.466,0,0,1-.313,1.968,2.445,2.445,0,0,1-1.207,1.062,4.791,4.791,0,0,1-2.084.429,4.662,4.662,0,0,1-2.226-.5,2.418,2.418,0,0,1-1.209-1.257,6.477,6.477,0,0,1-.284-2.17v-.519h2.744v1.222a.959.959,0,1,0,1.9-.038c-.17-1.237-1.3-1.793-2.159-2.508q-.471-.391-.908-.8a4.076,4.076,0,0,1-1.4-2.943,3.825,3.825,0,0,1,.515-2.1,2.286,2.286,0,0,1,1.183-1.038,5.1,5.1,0,0,1,3.712.034,2.1,2.1,0,0,1,1.183,1.033A7.391,7.391,0,0,1,1059.505,537.861Zm-32.593-4.029h6.007v2.5h-3.278V538.7h2.792v2.379h-2.792v2.748h3.336v2.5h-6.065Zm11.045,2.137v8.219c.466,0,1.294-.092,1.4-.279a4.148,4.148,0,0,0,.161-1.533V537.52a6.656,6.656,0,0,0-.053-1.088.514.514,0,0,0-.248-.35A5.652,5.652,0,0,0,1037.958,535.969Zm-2.807-2.137h2.151a14.533,14.533,0,0,1,3.136.216,2.3,2.3,0,0,1,1.8,1.81,16.525,16.525,0,0,1,.108,2.382v4.376a5.594,5.594,0,0,1-.278,2.18,2.472,2.472,0,0,1-1.5,1.406,6.113,6.113,0,0,1-1.6.127h-3.819Zm-14.621,2.083v2.833a4.775,4.775,0,0,0,1.328-.15c.147-.1.221-.427.221-.977v-.685a1.193,1.193,0,0,0-.213-.833A3.9,3.9,0,0,0,1020.529,535.915Zm-2.69-2.083h2.3a17.628,17.628,0,0,1,3.114.176,1.9,1.9,0,0,1,1.3.96c.814,1.524.491,4.132-1.251,4.809a2.069,2.069,0,0,1,1.192.67,1.6,1.6,0,0,1,.32.735,11.652,11.652,0,0,1,.081,1.849v3.3h-2.764l-.054-4.152a2.391,2.391,0,0,0-.161-1.136,3.056,3.056,0,0,0-1.388-.24v5.528h-2.69Z" transform="translate(-1017.84 -533.61)"/></g><g transform="translate(1017.84 453.07)"><path class="c" d="M1058.232,582.785v.78h-.722v-.78Zm-2.677-.586q-.077-.65-.152-1.606-.151,1.1-.189,1.606Zm.527-2.461.57,3.827h-1.019l-.049-.688h-.357l-.059.688h-1.03l.506-3.827Zm-2.687,3.047v.78h-.721v-.78Zm-1.686-1.889h-.924v-.283a.558.558,0,0,0-.035-.253.13.13,0,0,0-.119-.054.15.15,0,0,0-.135.073.424.424,0,0,0-.046.222.642.642,0,0,0,.052.289.772.772,0,0,0,.282.234,2.853,2.853,0,0,1,.837.647,1.482,1.482,0,0,1,.173.816,1.434,1.434,0,0,1-.1.6.749.749,0,0,1-.37.325,1.471,1.471,0,0,1-.638.131,1.43,1.43,0,0,1-.682-.151.738.738,0,0,1-.37-.385,1.977,1.977,0,0,1-.087-.665v-.25h.924v.465a.613.613,0,0,0,.039.277.153.153,0,0,0,.139.061.162.162,0,0,0,.148-.078.447.447,0,0,0,.048-.231.717.717,0,0,0-.092-.442,3,3,0,0,0-.465-.347,4.44,4.44,0,0,1-.492-.357.839.839,0,0,1-.2-.307,1.348,1.348,0,0,1-.079-.5,1.391,1.391,0,0,1,.112-.643.753.753,0,0,1,.362-.318,1.45,1.45,0,0,1,.6-.114,1.577,1.577,0,0,1,.661.125.69.69,0,0,1,.362.316,1.675,1.675,0,0,1,.088.646Zm-4.2,0h-.924v-.283a.561.561,0,0,0-.036-.253.13.13,0,0,0-.119-.054.149.149,0,0,0-.135.073.421.421,0,0,0-.046.222.628.628,0,0,0,.052.289.761.761,0,0,0,.282.234,2.843,2.843,0,0,1,.837.647,1.481,1.481,0,0,1,.173.816,1.429,1.429,0,0,1-.1.6.749.749,0,0,1-.369.325,1.47,1.47,0,0,1-.638.131,1.426,1.426,0,0,1-.682-.151.741.741,0,0,1-.37-.385,1.988,1.988,0,0,1-.087-.665v-.25h.924v.465a.618.618,0,0,0,.039.277.154.154,0,0,0,.139.061.162.162,0,0,0,.148-.078.443.443,0,0,0,.048-.231.723.723,0,0,0-.092-.442,2.986,2.986,0,0,0-.465-.347,4.676,4.676,0,0,1-.492-.357.837.837,0,0,1-.2-.307,1.341,1.341,0,0,1-.079-.5,1.391,1.391,0,0,1,.112-.643.752.752,0,0,1,.362-.318,1.455,1.455,0,0,1,.605-.114,1.578,1.578,0,0,1,.661.125.693.693,0,0,1,.362.316,1.671,1.671,0,0,1,.088.646Zm-4.058,1.3q-.076-.65-.152-1.606-.151,1.1-.189,1.606Zm.527-2.461.57,3.827h-1.019l-.049-.688h-.357l-.059.688h-1.03l.506-3.827Zm-2.758,1.669h-.995v-.667a1.2,1.2,0,0,0-.033-.363.136.136,0,0,0-.14-.072.148.148,0,0,0-.156.087,1.349,1.349,0,0,0-.033.378v1.777a1.248,1.248,0,0,0,.033.364.142.142,0,0,0,.149.085.139.139,0,0,0,.145-.085,1.381,1.381,0,0,0,.035-.4v-.479h.995v.149a2.954,2.954,0,0,1-.084.841.86.86,0,0,1-.371.435,1.273,1.273,0,0,1-.708.187,1.465,1.465,0,0,1-.721-.159.773.773,0,0,1-.376-.438,2.894,2.894,0,0,1-.092-.843v-1.117a5.047,5.047,0,0,1,.028-.62.867.867,0,0,1,.17-.4.942.942,0,0,1,.39-.3,1.418,1.418,0,0,1,.573-.11,1.4,1.4,0,0,1,.726.17.823.823,0,0,1,.376.424,2.571,2.571,0,0,1,.089.791Zm-3.406-1.669v3.827h-1v-3.827Zm-3.29.654v.851a.439.439,0,0,0,.235-.046c.045-.031.068-.131.068-.3v-.21a.319.319,0,0,0-.065-.239A.369.369,0,0,0,1034.523,580.393Zm-1-.654h.7a5.386,5.386,0,0,1,.954.054.657.657,0,0,1,.406.277,1.262,1.262,0,0,1,.157.713,1.112,1.112,0,0,1-.111.6.579.579,0,0,1-.437.184.749.749,0,0,1,.4.2.588.588,0,0,1,.126.225,3.53,3.53,0,0,1,.025.566v1.009h-.924v-1.271a.871.871,0,0,0-.049-.381c-.032-.048-.117-.073-.253-.073v1.726h-1Zm-.911,0v.766h-.59v3.061h-.995V580.5h-.589v-.766Zm-3.044,1.669h-.995v-.667a1.207,1.207,0,0,0-.032-.363.137.137,0,0,0-.14-.072.148.148,0,0,0-.157.087,1.355,1.355,0,0,0-.033.378v1.777a1.253,1.253,0,0,0,.033.364.142.142,0,0,0,.149.085.139.139,0,0,0,.145-.085,1.4,1.4,0,0,0,.034-.4v-.479h.995v.149a2.949,2.949,0,0,1-.084.841.858.858,0,0,1-.371.435,1.271,1.271,0,0,1-.707.187,1.466,1.466,0,0,1-.721-.159.771.771,0,0,1-.376-.438,2.894,2.894,0,0,1-.092-.843v-1.117a5.047,5.047,0,0,1,.028-.62.867.867,0,0,1,.17-.4.943.943,0,0,1,.39-.3,1.6,1.6,0,0,1,1.3.061.823.823,0,0,1,.376.424,2.563,2.563,0,0,1,.09.791Zm-5.018-1.669h1.66v.766h-.664v.726h.621v.729h-.621v.841h.73v.766h-1.726Zm-1.528,0V582.8h.605v.766h-1.6v-3.827Zm-3.69,0H1021v.766h-.664v.726h.621v.729h-.621v.841h.73v.766h-1.726Zm-1.5-.58h41.888v4.987H1017.84Z" transform="translate(-1017.84 -579.159)"/></g><g transform="translate(1061.756 394.057)"><path class="d" d="M1157.082,395.984h.429a.694.694,0,0,0,.42-.091.3.3,0,0,0,.112-.241.292.292,0,0,0-.054-.173.317.317,0,0,0-.149-.114,1.122,1.122,0,0,0-.355-.038h-.4Zm-.353,1.231v-2.186h.753a1.834,1.834,0,0,1,.558.061.538.538,0,0,1,.276.212.557.557,0,0,1,.1.32.579.579,0,0,1-.172.417.68.68,0,0,1-.456.2.583.583,0,0,1,.186.116,2.466,2.466,0,0,1,.324.434l.267.428h-.429l-.195-.344a1.754,1.754,0,0,0-.371-.51.449.449,0,0,0-.282-.074h-.208v.927Zm.893-2.821a1.735,1.735,0,0,0-.835.22,1.575,1.575,0,0,0-.635.628,1.691,1.691,0,0,0,0,1.693,1.594,1.594,0,0,0,.629.628,1.693,1.693,0,0,0,1.688,0,1.588,1.588,0,0,0,.629-.628,1.7,1.7,0,0,0,0-1.693,1.564,1.564,0,0,0-.635-.628A1.738,1.738,0,0,0,1157.622,394.394Zm0-.337a2.082,2.082,0,0,1,1,.263,1.872,1.872,0,0,1,.76.752,2.078,2.078,0,0,1,.272,1.02,2.055,2.055,0,0,1-.269,1.011,1.882,1.882,0,0,1-.752.754,2.043,2.043,0,0,1-2.025,0,1.892,1.892,0,0,1-.754-.754,2.037,2.037,0,0,1,0-2.032,1.885,1.885,0,0,1,.762-.752A2.083,2.083,0,0,1,1157.622,394.057Z" transform="translate(-1155.586 -394.057)"/></g></g></g></svg>