<svg xmlns="http://www.w3.org/2000/svg" width="79.935" height="64.186" viewBox="0 0 79.935 64.186"><defs><style>.a,.d{fill:#878787;}.a{stroke:#878787;stroke-miterlimit:10;}.b{fill:#cfcecf;}.c{fill:#706f6f;}</style></defs><g transform="translate(-599.5 -3042)"><path class="a" d="M164.575,440.551a62.064,62.064,0,0,1-6.691,1.777,36.661,36.661,0,0,1-7.469.722q-9.052,0-14.105-4.887t-5.053-13.856q0-9.771,4.9-14.618t14.369-4.845A50.966,50.966,0,0,1,163.6,406.51v8h-1.86l-.749-4.609a14.535,14.535,0,0,0-4.6-2.1,21.281,21.281,0,0,0-5.651-.735q-7.108,0-10.4,4.234t-3.291,12.953q0,8.191,3.389,12.424t10.023,4.235a23,23,0,0,0,4.887-.555,13.759,13.759,0,0,0,3.887-1.333V428.445l-4.776-.722v-1.5h13.745v1.5l-3.638.722Z" transform="translate(469.302 2641.929)"/><path class="a" d="M295.741,406.128V407.6l4.776.722v27.932c0,3.517-2.272,5.347-3.972,5.639a2.974,2.974,0,0,1-1.423-.215c-1.465-.794-4.924-4.492-4.924-4.492l-2.633,2.829a27.154,27.154,0,0,0,3.692,3.347,9.979,9.979,0,0,0,10.5-.641,8.729,8.729,0,0,0,3.475-4.486c.672-1.893.612-4.388.612-6.868V408.321l4.22-.722v-1.471Z" transform="translate(363.763 2641.062)"/><path class="b" d="M286.726,511.981" transform="translate(364.329 2569.59)"/><path class="c" d="M244.31,442.191v1.144l3.066.584a19.676,19.676,0,0,1-2.225,7.838l-9.112-8.292a21.933,21.933,0,0,0,4.405-2.149,7.1,7.1,0,0,0,2.04-2.171,5.649,5.649,0,0,0,.724-2.915,5.327,5.327,0,0,0-1.987-4.492,9.258,9.258,0,0,0-5.746-1.534,9.636,9.636,0,0,0-6,1.609,5.585,5.585,0,0,0-2.073,4.7,9.624,9.624,0,0,0,3.26,7.062,16.321,16.321,0,0,0-4.233,2.169,7.876,7.876,0,0,0-2.116,2.582,7.8,7.8,0,0,0-.777,3.606,7.173,7.173,0,0,0,2.689,6.036q2.687,2.084,8.043,2.084a15.664,15.664,0,0,0,5.367-.886,14.441,14.441,0,0,0,4.7-2.893l2.633-2.829a22.886,22.886,0,0,0,5.434-11.251Zm-12.094-9.222a4.365,4.365,0,0,1,3.26-1.036q3.932,0,3.932,4.146a6.779,6.779,0,0,1-.465,2.678,4.717,4.717,0,0,1-1.382,1.825,11.166,11.166,0,0,1-3.012,1.523,7.37,7.37,0,0,1-3.326-6.026A4.337,4.337,0,0,1,232.216,432.969Zm2.635,25.224a7.479,7.479,0,0,1-5.258-1.684,6.227,6.227,0,0,1-1.825-4.815,7.606,7.606,0,0,1,1.015-4.039,6.83,6.83,0,0,1,3.283-2.635l10.776,9.87A10.891,10.891,0,0,1,234.851,458.193Z" transform="translate(406.996 2624.805)"/><rect class="a" width="74.389" height="0.845" transform="translate(600 3090.689)"/><g transform="translate(600 3104.841)"><rect class="a" width="74.389" height="0.845" transform="translate(0 0)"/></g><path class="c" d="M132.426,558.975h-1.492v-.868h1.492v-1.5h.868v1.5h1.491v.868h-1.491V560.5h-.868Z" transform="translate(469.52 2539.459)"/><path class="c" d="M145.109,550.576h3.337v1.113h-2.114v2.058h1.681v1.112h-1.681v2.392h2.114v1.113h-3.337Z" transform="translate(459.949 2543.531)"/><path class="c" d="M157.537,550.576h1.746l.779,5.574h.022l.779-5.574h1.747v7.788h-1.158v-5.9h-.022l-.89,5.9h-1.024l-.89-5.9H158.6v5.9h-1.067Z" transform="translate(451.557 2543.531)"/><path class="c" d="M175.956,550.576h1.8c1.224,0,1.825.679,1.825,1.925v.767c0,1.246-.6,1.925-1.825,1.925h-.579v3.17h-1.223Zm1.8,3.5c.39,0,.6-.178.6-.734v-.923c0-.557-.211-.734-.6-.734h-.579v2.391Z" transform="translate(439.121 2543.531)"/><path class="c" d="M189.174,550.576h1.813c1.269,0,1.814.59,1.814,1.792v.477c0,.8-.257,1.313-.8,1.535v.022c.611.19.812.769.812,1.647v1.368a2.291,2.291,0,0,0,.133.945H191.7a2.4,2.4,0,0,1-.111-.957v-1.424c0-.723-.211-.958-.768-.958H190.4v3.338h-1.223Zm1.668,3.338c.457,0,.734-.2.734-.823v-.6c0-.557-.189-.8-.623-.8H190.4v2.225Z" transform="translate(430.196 2543.531)"/><path class="c" d="M202.969,550.576h3.337v1.113h-2.114v2.058h1.681v1.112h-1.681v2.392h2.114v1.113h-3.337Z" transform="translate(420.882 2543.531)"/><path class="c" d="M214.812,556.286v-.444h1.158v.534c0,.555.244.756.634.756s.634-.2.634-.78c0-.644-.246-1.056-1.047-1.757a3.019,3.019,0,0,1-1.357-2.425,1.7,1.7,0,0,1,1.825-1.936c1.191,0,1.78.712,1.78,1.959v.322h-1.156v-.4c0-.556-.223-.769-.612-.769s-.612.212-.612.747c0,.566.256.979,1.058,1.68a3.009,3.009,0,0,1,1.345,2.492,1.727,1.727,0,0,1-1.846,1.981C215.413,558.244,214.812,557.532,214.812,556.286Z" transform="translate(412.885 2543.761)"/><path class="c" d="M228.371,550.576h1.657l1.269,7.788h-1.224l-.222-1.546v.022H228.46l-.222,1.524H227.1Zm1.335,5.206-.545-3.849h-.022l-.535,3.849Z" transform="translate(404.587 2543.531)"/><path class="d" d="M247.3,550.576h1.868c1.224,0,1.825.679,1.825,1.925v3.938c0,1.246-.6,1.925-1.825,1.925H247.3Zm1.846,6.675c.39,0,.623-.2.623-.756v-4.049c0-.557-.233-.756-.623-.756h-.623v5.562Z" transform="translate(390.947 2543.531)"/><path class="d" d="M261.206,550.576h3.337v1.113h-2.114v2.058h1.681v1.112h-1.681v2.392h2.114v1.113h-3.337Z" transform="translate(381.56 2543.531)"/><path class="d" d="M279.381,550.576h1.657l1.269,7.788h-1.224l-.222-1.546v.022H279.47l-.222,1.524h-1.135Zm1.335,5.206-.545-3.849h-.022l-.535,3.849Z" transform="translate(370.145 2543.531)"/><path class="d" d="M292.531,556.33v-4.182a1.806,1.806,0,1,1,3.6,0v.823h-1.158v-.9c0-.511-.244-.723-.612-.723s-.612.212-.612.723v4.351c0,.511.246.712.612.712s.612-.2.612-.712v-1.191h1.158v1.1a1.806,1.806,0,1,1-3.6,0Z" transform="translate(360.41 2543.761)"/><path class="d" d="M305.882,550.576h3.337v1.113H307.1v2.058h1.681v1.112H307.1v2.392h2.114v1.113h-3.337Z" transform="translate(351.395 2543.531)"/><path class="d" d="M318.31,550.576h1.813c1.269,0,1.814.59,1.814,1.792v.477c0,.8-.257,1.313-.8,1.535v.022c.611.19.812.769.812,1.647v1.368a2.291,2.291,0,0,0,.133.945h-1.247a2.4,2.4,0,0,1-.111-.957v-1.424c0-.723-.211-.958-.767-.958h-.423v3.338H318.31Zm1.668,3.338c.457,0,.734-.2.734-.823v-.6c0-.557-.189-.8-.623-.8h-.556v2.225Z" transform="translate(343.004 2543.531)"/><path class="d" d="M331.832,556.286v-4.093a1.86,1.86,0,1,1,3.715,0v4.093a1.86,1.86,0,1,1-3.715,0Zm2.492.079v-4.25c0-.556-.245-.769-.634-.769s-.634.212-.634.769v4.25c0,.555.246.767.634.767S334.324,556.92,334.324,556.365Z" transform="translate(333.874 2543.761)"/><path class="c" d="M346.811,558.975h-1.492v-.868h1.492v-1.5h.868v1.5h1.491v.868h-1.491V560.5h-.868Z" transform="translate(324.767 2539.459)"/><path class="c" d="M363.128,394.405a2.128,2.128,0,1,1,2.128-2.128A2.13,2.13,0,0,1,363.128,394.405Zm0-3.856a1.728,1.728,0,1,0,1.729,1.728A1.731,1.731,0,0,0,363.128,390.549Z" transform="translate(314.179 2651.85)"/><path class="c" d="M365.009,395.883v-1.941h.861a1.141,1.141,0,0,1,.394.053.431.431,0,0,1,.216.185.551.551,0,0,1,.08.292.486.486,0,0,1-.134.348.68.68,0,0,1-.412.18.629.629,0,0,1,.154.1,1.269,1.269,0,0,1,.214.258l.337.528H366.4l-.257-.4c-.075-.117-.137-.205-.185-.267a.554.554,0,0,0-.13-.129.372.372,0,0,0-.118-.053.78.78,0,0,0-.142-.008h-.3v.861Zm.257-1.085h.553a.83.83,0,0,0,.274-.036.288.288,0,0,0,.151-.117.313.313,0,0,0,.053-.173.29.29,0,0,0-.1-.227.472.472,0,0,0-.315-.088h-.615Z" transform="translate(311.472 2649.29)"/></g></svg>