<svg xmlns="http://www.w3.org/2000/svg" width="25.372" height="25.291" viewBox="0 0 25.372 25.291"><defs><style>.a{fill:#135aa3;}</style></defs><g transform="translate(0 0)"><path class="a" d="M520.186,1137.729a12.493,12.493,0,0,1,9.156,3.65,12.658,12.658,0,0,1-8.96,21.64,12.325,12.325,0,0,1-9.042-3.667,12.054,12.054,0,0,1-3.685-8.872,12.825,12.825,0,0,1,1.679-6.433,12.4,12.4,0,0,1,10.852-6.318Zm.088.981a11.52,11.52,0,0,0-5.8,1.568,11.376,11.376,0,0,0-4.283,4.222,11.581,11.581,0,0,0-1.54,5.918,10.96,10.96,0,0,0,3.409,8.159,11.338,11.338,0,0,0,8.218,3.328,11.965,11.965,0,0,0,5.945-1.53,11.055,11.055,0,0,0,4.264-4.185,11.6,11.6,0,0,0,1.531-5.9,11.185,11.185,0,0,0-5.841-10.012A11.826,11.826,0,0,0,520.274,1138.71Z" transform="translate(-507.655 -1137.729)"/></g><path class="a" d="M542.114,1173.234h2.921l-.015-7.1,2.108,0,.265-2.922h-2.242c0-.427-.017-.822,0-1.215.02-.364.205-.515.57-.517.466,0,1.632.008,1.632.008l.007-2.515s-1.853-.04-2.759.014a2.489,2.489,0,0,0-1.627.713,2.9,2.9,0,0,0-.861,2.063c-.016.482,0,.964,0,1.474h-1.429v2.9l1.429-.005Z" transform="translate(-531.691 -1153.178)"/></svg>