<svg xmlns="http://www.w3.org/2000/svg" width="14.136" height="12.109" viewBox="0 0 14.136 12.109"><defs><style>.a{fill:#fff;}</style></defs><path class="a" d="M280.193,1310.88a4.8,4.8,0,0,1,2.146,3.132,18.472,18.472,0,0,1,.385,2,8.569,8.569,0,0,1,.491,1.032,1.127,1.127,0,0,1-.1.812,2.508,2.508,0,0,1-.924,1.075,7.731,7.731,0,0,1-1.7.781c-.7.234-1.391.466-2.063.759s-1.338.564-1.972.914a13.216,13.216,0,0,1-1.58.723,4.28,4.28,0,0,1-4.363-.869,7.506,7.506,0,0,1-1.121-1.2,1.319,1.319,0,0,1-.069-1.536,16.879,16.879,0,0,1,1.975-2.218,11.369,11.369,0,0,1,.936-3.049,6.671,6.671,0,0,1,3.566-2.727A5.9,5.9,0,0,1,280.193,1310.88Zm-6.068,8.649a6.577,6.577,0,0,0,1.287-.015,15.936,15.936,0,0,0,2.563-.539,9.786,9.786,0,0,0,3.739-2.035,1.793,1.793,0,0,0,.365-1.433,5.508,5.508,0,0,0-.326-1.552,10.5,10.5,0,0,0-.449-1.046s-3.271.042-5.051,1.659S274.125,1319.529,274.125,1319.529Zm4.639-8.567a6.4,6.4,0,0,0-2.823.125,5.944,5.944,0,0,0-2.572,1.631,6.52,6.52,0,0,0-1.23,2.177,8.387,8.387,0,0,0-.341,2.881,2.015,2.015,0,0,0,.143.467,2.594,2.594,0,0,0,.744.865,1.471,1.471,0,0,0,.694.307c.1.017.174.012.181-.153a12.218,12.218,0,0,1,1.171-3.762,5.38,5.38,0,0,1,3.285-2.675,16.138,16.138,0,0,1,2.845-.536,2.4,2.4,0,0,0-.579-.671c-.258-.189-.664-.421-.664-.421a17.483,17.483,0,0,0-3.6,1.374,9.143,9.143,0,0,0-2.22,2.167.279.279,0,0,1-.375.024.272.272,0,0,1-.068-.367,7.166,7.166,0,0,1,2.211-2.182A13.8,13.8,0,0,1,278.764,1310.963Zm-7.553,6.27a8.5,8.5,0,0,0-1.428,1.666.667.667,0,0,0,.055.75,5.318,5.318,0,0,0,.709.823,7.69,7.69,0,0,0,1.051.849,2.961,2.961,0,0,0,1.8.47,6.835,6.835,0,0,0,2.31-.665c.292-.145,1.8-.846,2.26-1.054s1.041-.437,1.509-.609a19.259,19.259,0,0,0,1.884-.734,2.438,2.438,0,0,0,1.163-.993.752.752,0,0,0,.041-.759c-.037-.072-.058-.075-.1-.008a13.747,13.747,0,0,1-3.193,2.066,16.294,16.294,0,0,1-3.909,1.05,4.868,4.868,0,0,1-3.184-.591A2.628,2.628,0,0,1,271.211,1317.233Z" transform="translate(-269.117 -1310.257)"/></svg>