<svg xmlns="http://www.w3.org/2000/svg" width="14.032" height="12.307" viewBox="0 0 14.032 12.307"><defs><style>.a{fill:#fff;}</style></defs><g transform="translate(0 0)"><path class="a" d="M356.964,1304.074h-5.31c-.4,0-.514-.109-.514-.507q0-2.7,0-5.67a.323.323,0,0,0-.178-.322c-.632-.388-.9-.714-.962-1.2a1.963,1.963,0,0,1,.149-1.042c.627-1.1,1.153-1.986,1.751-3.1a.79.79,0,0,1,.815-.465c2.893.014,5.786.01,8.678,0a.589.589,0,0,1,.583.348c.477.863.972,1.716,1.461,2.573.165.29.339.576.493.872a1.1,1.1,0,0,1-.011.869,1.984,1.984,0,0,1-.951,1.155.278.278,0,0,0-.161.284q.006,2.995,0,5.717c0,.366-.121.486-.49.486Zm-4.175-11.662a.248.248,0,0,0-.255.131c-.359.642-1.525,2.574-1.664,2.817a1.029,1.029,0,0,0-.139.839,1.108,1.108,0,0,0,1.2.9,1.511,1.511,0,0,0,1.208-.732h.959a1.347,1.347,0,0,0,1.176.731,1.587,1.587,0,0,0,1.257-.731h.946a1.3,1.3,0,0,0,1.136.731,1.411,1.411,0,0,0,1.178-.731h1.021s.551.692,1.09.728a1.244,1.244,0,0,0,1.169-.595.874.874,0,0,0,.182-.582,2.2,2.2,0,0,0-.316-.727c-.486-.87-1.017-1.775-1.505-2.644a.259.259,0,0,0-.266-.14C359.775,1292.415,354.189,1292.414,352.789,1292.412Zm6.48,11.1h2.676c.226,0,.227,0,.227-.222,0-1.671-.009-3.654-.009-5.325,0-.244,0-.245-.252-.265a2.118,2.118,0,0,1-1.508-.67c-.084-.1-.113-.117-.191-.023a1.966,1.966,0,0,1-1.589.736,1.928,1.928,0,0,1-1.515-.7c-.138-.16-.122-.149-.245-.008a1.966,1.966,0,0,1-1.589.7,2.015,2.015,0,0,1-1.581-.775c-.056-.07-.117-.052-.168.016a2.053,2.053,0,0,1-.323.347,2.113,2.113,0,0,1-1.2.405c-.234.018-.241.026-.241.212,0,1.7,0,3.685,0,5.388,0,.134.038.187.178.182.256-.009.628,0,.883,0,.231,0,.231,0,.231-.233,0-1.138.011-2.448-.011-3.586a1.24,1.24,0,0,1,1.25-1.245c.328.016.658,0,.987,0a.92.92,0,0,1,.278.037,1.2,1.2,0,0,1,.891,1.2c0,1.143.006,2.458.006,3.6,0,.218,0,.219.213.219Zm-5.641-2.108c0,.59.007,1.351,0,1.941,0,.118.032.169.159.168.538-.005,1.383,0,1.921,0,.111,0,.16-.032.16-.151,0-1.164,0-2.591-.01-3.755a.463.463,0,0,0-.508-.509c-.292-.007-.892-.007-1.185,0-.376.008-.54.181-.541.556C353.628,1300.2,353.629,1300.848,353.629,1301.4Z" transform="translate(-349.987 -1291.767)"/><path class="a" d="M431.445,1368.334a.985.985,0,0,1-1.073-.978,10.95,10.95,0,0,1,.017-1.579.947.947,0,0,1,.936-.843q.97-.008,1.941,0a.95.95,0,0,1,.954.941q.013.751,0,1.5a.948.948,0,0,1-.96.951C432.937,1368.336,431.726,1368.319,431.445,1368.334Zm1.939-.518c.255,0,.371-.114.375-.364q.01-.818,0-1.637c0-.259-.108-.365-.369-.367q-1.088-.01-2.176,0c-.28,0-.365.1-.368.38q-.006.8,0,1.6c0,.293.1.388.4.391C431.593,1367.821,433.018,1367.822,433.384,1367.816Z" transform="translate(-423.037 -1358.271)"/></g></svg>