<svg xmlns="http://www.w3.org/2000/svg" xmlns:xlink="http://www.w3.org/1999/xlink" width="1298" height="116" viewBox="0 0 1298 116"><defs><style>.a{fill:#dfdbdb;}.b{fill:#135aa3;}.b,.d{font-size:16px;font-family:Lato-Semibold, Lato;font-weight:600;}.c{fill:url(#c);}.d,.f,.g{fill:#fff;}.e{fill:none;}.f{font-size:12px;font-family:Lato-Bold, Lato;font-weight:700;}.h,.i{stroke:none;}.i{fill:#fff;}.j{filter:url(#f);}.k{filter:url(#d);}.l{filter:url(#a);}</style><filter id="a" x="0" y="0" width="1298" height="54" filterUnits="userSpaceOnUse"><feOffset dy="3" input="SourceAlpha"/><feGaussianBlur stdDeviation="3" result="b"/><feFlood flood-opacity="0.161"/><feComposite operator="in" in2="b"/><feComposite in="SourceGraphic"/></filter><linearGradient id="c" x1="0.5" x2="0.5" y2="1" gradientUnits="objectBoundingBox"><stop offset="0" stop-color="#195ca1"/><stop offset="1" stop-color="#182f65"/></linearGradient><filter id="d" x="949.227" y="56.021" width="143" height="54" filterUnits="userSpaceOnUse"><feOffset dy="3" input="SourceAlpha"/><feGaussianBlur stdDeviation="3" result="e"/><feFlood flood-opacity="0.161"/><feComposite operator="in" in2="e"/><feComposite in="SourceGraphic"/></filter><filter id="f" x="1089" y="56.021" width="143" height="54" filterUnits="userSpaceOnUse"><feOffset dy="3" input="SourceAlpha"/><feGaussianBlur stdDeviation="3" result="g"/><feFlood flood-opacity="0.161"/><feComposite operator="in" in2="g"/><feComposite in="SourceGraphic"/></filter></defs><g transform="translate(9 6)"><g transform="translate(0 -110)"><g class="l" transform="matrix(1, 0, 0, 1, -9, 104)"><rect class="a" width="1280" height="36" transform="translate(9 6)"/></g><text class="b" transform="translate(676 135)"><tspan x="0" y="0">¿Quiénes somos?</tspan></text><text class="b" transform="translate(88 135)"><tspan x="0" y="0">Inicio</tspan></text><text class="b" transform="translate(847 135)"><tspan x="0" y="0">Beneficios del producto</tspan></text><text class="b" transform="translate(1054 135)"><tspan x="0" y="0">Nuestras soluciones</tspan></text></g><g transform="translate(-27.285)"><rect class="c" width="1280" height="110" transform="translate(28.285)"/><text class="d" transform="translate(1022.785 41)"><tspan x="0" y="0">Ingreso a las plataformas</tspan></text><g transform="translate(976.512 56.021)"><g class="k" transform="matrix(1, 0, 0, 1, -958.23, -62.02)"><g class="e" transform="translate(958.23 62.02)"><path class="h" d="M19.1,0H105.9C116.45,0,125,8.059,125,18s-8.55,18-19.1,18H19.1C8.55,36,0,27.941,0,18S8.55,0,19.1,0Z"/><path class="i" d="M 19.09721374511719 1 C 14.25216674804688 1 9.700035095214844 2.775615692138672 6.279335021972656 5.999782562255859 C 2.874900817871094 9.208616256713867 1 13.47036743164062 1 18 C 1 22.52961730957031 2.874900817871094 26.79138374328613 6.279335021972656 30.00021743774414 C 9.700035095214844 33.22438430786133 14.25216674804688 35 19.09721374511719 35 L 105.9027709960938 35 C 110.7478179931641 35 115.2999496459961 33.22438430786133 118.7206497192383 30.00021743774414 C 122.1250991821289 26.79138374328613 124 22.52961730957031 124 18 C 124 13.47036743164062 122.1250991821289 9.208616256713867 118.7206497192383 5.999782562255859 C 115.2999649047852 2.775615692138672 110.7478179931641 1 105.9027709960938 1 L 19.09721374511719 1 M 19.09721374511719 0 L 105.9027709960938 0 C 116.4498672485352 0 125 8.058866500854492 125 18 C 125 27.94111633300781 116.4498672485352 36 105.9027709960938 36 L 19.09721374511719 36 C 8.550117492675781 36 0 27.94111633300781 0 18 C 0 8.058866500854492 8.550117492675781 0 19.09721374511719 0 Z"/></g></g><text class="f" transform="translate(49.804 21.979)"><tspan x="-23.712" y="0">Afiliados</tspan></text><g transform="translate(85.164 10.979)"><path class="g" d="M356.964,1304.074h-5.31c-.4,0-.514-.109-.514-.507q0-2.7,0-5.67a.323.323,0,0,0-.178-.322c-.632-.388-.9-.714-.962-1.2a1.963,1.963,0,0,1,.149-1.042c.627-1.1,1.153-1.986,1.751-3.1a.79.79,0,0,1,.815-.465c2.893.014,5.786.01,8.678,0a.589.589,0,0,1,.583.348c.477.863.972,1.716,1.461,2.573.165.29.339.576.493.872a1.1,1.1,0,0,1-.011.869,1.984,1.984,0,0,1-.951,1.155.278.278,0,0,0-.161.284q.006,2.995,0,5.717c0,.366-.121.486-.49.486Zm-4.175-11.662a.248.248,0,0,0-.255.131c-.359.642-1.525,2.574-1.664,2.817a1.029,1.029,0,0,0-.139.839,1.108,1.108,0,0,0,1.2.9,1.511,1.511,0,0,0,1.208-.732h.959a1.347,1.347,0,0,0,1.176.731,1.587,1.587,0,0,0,1.257-.731h.946a1.3,1.3,0,0,0,1.136.731,1.411,1.411,0,0,0,1.178-.731h1.021s.551.692,1.09.728a1.244,1.244,0,0,0,1.169-.595.874.874,0,0,0,.182-.582,2.2,2.2,0,0,0-.316-.727c-.486-.87-1.017-1.775-1.505-2.644a.259.259,0,0,0-.266-.14C359.775,1292.415,354.189,1292.414,352.789,1292.412Zm6.48,11.1h2.676c.226,0,.227,0,.227-.222,0-1.671-.009-3.654-.009-5.325,0-.244,0-.245-.252-.265a2.118,2.118,0,0,1-1.508-.67c-.084-.1-.113-.117-.191-.023a1.966,1.966,0,0,1-1.589.736,1.928,1.928,0,0,1-1.515-.7c-.138-.16-.122-.149-.245-.008a1.966,1.966,0,0,1-1.589.7,2.015,2.015,0,0,1-1.581-.775c-.056-.07-.117-.052-.168.016a2.053,2.053,0,0,1-.323.347,2.113,2.113,0,0,1-1.2.405c-.234.018-.241.026-.241.212,0,1.7,0,3.685,0,5.388,0,.134.038.187.178.182.256-.009.628,0,.883,0,.231,0,.231,0,.231-.233,0-1.138.011-2.448-.011-3.586a1.24,1.24,0,0,1,1.25-1.245c.328.016.658,0,.987,0a.92.92,0,0,1,.278.037,1.2,1.2,0,0,1,.891,1.2c0,1.143.006,2.458.006,3.6,0,.218,0,.219.213.219Zm-5.641-2.108c0,.59.007,1.351,0,1.941,0,.118.032.169.159.168.538-.005,1.383,0,1.921,0,.111,0,.16-.032.16-.151,0-1.164,0-2.591-.01-3.755a.463.463,0,0,0-.508-.509c-.292-.007-.892-.007-1.185,0-.376.008-.54.181-.541.556C353.628,1300.2,353.629,1300.848,353.629,1301.4Z" transform="translate(-349.987 -1291.767)"/><path class="g" d="M431.445,1368.334a.985.985,0,0,1-1.073-.978,10.95,10.95,0,0,1,.017-1.579.947.947,0,0,1,.936-.843q.97-.008,1.941,0a.95.95,0,0,1,.954.941q.013.751,0,1.5a.948.948,0,0,1-.96.951C432.937,1368.336,431.726,1368.319,431.445,1368.334Zm1.939-.518c.255,0,.371-.114.375-.364q.01-.818,0-1.637c0-.259-.108-.365-.369-.367q-1.088-.01-2.176,0c-.28,0-.365.1-.368.38q-.006.8,0,1.6c0,.293.1.388.4.391C431.593,1367.821,433.018,1367.822,433.384,1367.816Z" transform="translate(-423.037 -1358.271)"/></g></g><g transform="translate(93.285 42.505)"><path class="g" d="M29.118-95.162c8.028,0,12.022,4,11.384,6.246a4.081,4.081,0,0,1-4,2.842c-4.056,0-2.012-3.973-8.416-3.973-4.4,0-6.739,2.161-8.158,7.174-.4,2.276.031,7.383,6.094,7.383,5.5,0,6.178-4.285,9.551-4.285,2.634,0,3.928,1.4,3.566,2.685C38.188-73.75,33.09-69.795,23.1-70.5c-10.046-.7-13.607-7.11-11.131-14.14,1.846-6.523,7.237-10.523,17.144-10.523" transform="translate(-11.216 95.162)"/><path class="g" d="M57.969-95.144c10.555.167,15.388,6.345,13.191,14.4C69.133-73.306,62.9-70.416,53.194-70.416c-10.172,0-14.611-6.461-12.921-13.55,1.323-5.543,6.43-11.349,17.7-11.178M54.542-75.309c5.113-.038,7.607-2.516,8.475-7.045.823-4.292-1.5-7.761-5.65-7.906C52.089-90.441,49-87.041,48.553-82.9c-.4,3.713,1.054,7.627,5.989,7.592" transform="translate(-11.216 95.162)"/><path class="g" d="M89.117-72.2c-1.068,1.853-3.759,1.78-5.772,1.78s-4.643-.371-4.918-2.223L72.339-90.376a4.565,4.565,0,0,1-.2-1.611c.465-2.166,2.873-3.15,4.487-3.15,1.737,0,3.589.587,3.97,2.56l3.867,15.025.128-.026,7.686-14.815a4.883,4.883,0,0,1,4.867-2.754c1.617,0,3.8,1.375,3.344,3.544a6.761,6.761,0,0,1-.8,1.891Z" transform="translate(-11.216 95.162)"/><path class="g" d="M101.686-91.914a3.935,3.935,0,0,1,3.921-3.233c1.973,0,4.714-.36,4.714,3.353l-2.349,18.246c-.735,2.671-2.809,3.131-4.782,3.131s-4.195-1.063-3.784-3Z" transform="translate(-11.216 95.162)"/><path class="g" d="M115.7-91.76c.307-2.474,1.7-3.254,3.659-3.254H131.6c1.626,0,2.752.472,2.532,2.237s-1.466,2.236-3.094,2.236h-9.929l-.714,5.7h8.4c1.46,0,2.559.4,2.341,2.133s-1.418,2.135-2.873,2.135h-8.4l-.96,7.625a3.037,3.037,0,0,1-3.126,2.779,2.274,2.274,0,0,1-2.431-2.779Z" transform="translate(-11.216 95.162)"/><path class="g" d="M148.822-75.39c-.256,2.065.19,2.538.092,3.317a2.409,2.409,0,0,1-2.475,1.9c-2.135,0-2.677-1.358-2.551-2.883a9.657,9.657,0,0,1-7.14,2.883c-2.814,0-5.348-1.934-4.961-5.052.517-4.1,3.779-5.25,7.631-5.693l3.061-.338c1.2-.135,2.184-.407,2.364-1.831s-1.2-2.033-2.864-2.033c-3.66,0-4.1,2.711-6.07,2.711a1.7,1.7,0,0,1-1.862-1.9c.251-1.966,3.342-4.474,8.425-4.474,4.743,0,7.839,1.527,7.394,5.084Zm-4.5-3.56a5.028,5.028,0,0,1-2.234.779l-1.83.27c-2.106.307-3.306.95-3.489,2.442-.141,1.117.792,2.03,2.489,2.03,2.708,0,4.592-1.761,4.821-3.59Z" transform="translate(-11.216 95.162)"/><path class="g" d="M163.11-88.779c4.135,0,6.925,2.339,6.637,4.643A2.426,2.426,0,0,1,167.174-82c-2.338,0-1.124-2.914-4.684-2.914-1.932,0-4.369,1.32-4.929,5.794-.387,3.085.819,5.085,3.532,5.085,3.455,0,3.109-3.186,5.718-3.186a1.7,1.7,0,0,1,1.831,1.9c-.273,2.171-3.089,5.153-8.171,5.153-6.1,0-8.509-3.762-7.861-8.948.719-5.691,4.433-9.658,10.5-9.658" transform="translate(-11.216 95.162)"/><path class="g" d="M173.8-85.085h-.85c-1.388,0-1.9-.54-1.76-1.627s.779-1.624,2.169-1.624h.848l.379-3.019a2.62,2.62,0,0,1,2.785-2.474,1.975,1.975,0,0,1,2.164,2.474l-.38,3.019h1.488c1.459,0,2.187.44,2.035,1.624s-.984,1.627-2.441,1.627h-1.489l-1.244,9.9c-.092.746.261,1.154,1.143,1.154h.713c1.085,0,1.655.606,1.517,1.657-.176,1.425-1.493,2.206-3.866,2.206-3.594,0-4.9-1.493-4.53-4.408Z" transform="translate(-11.216 95.162)"/><path class="g" d="M200.264-72.646a2.461,2.461,0,0,1-2.549,2.474c-1.562,0-2.114-.983-1.93-2.474l.086-.646H195.8a8.157,8.157,0,0,1-6.386,3.12c-2.981,0-6.05-1.492-5.419-6.508l1.205-9.625a2.538,2.538,0,0,1,2.789-2.474c1.931,0,2.327,1.154,2.162,2.474l-1.084,8.641c-.252,2,.551,3.425,2.685,3.425a4.485,4.485,0,0,0,4.252-3.9l1.023-8.168a2.536,2.536,0,0,1,2.787-2.474c1.933,0,2.33,1.154,2.164,2.474Z" transform="translate(-11.216 95.162)"/><path class="g" d="M206.2-86.475a2.477,2.477,0,0,1,2.526-2.3,1.855,1.855,0,0,1,1.946,2.3l-.239,1.9h.067c.839-2.067,2.225-4.2,4.629-4.2a2.164,2.164,0,0,1,2.411,2.407,2.621,2.621,0,0,1-2.75,2.473h-.881c-2,0-3.261,1.391-3.774,5.488l-.724,5.764a2.534,2.534,0,0,1-2.782,2.474c-1.935,0-.429-16.3-.429-16.3" transform="translate(-11.216 95.162)"/><path class="g" d="M234.156-75.39c-.259,2.065.19,2.538.094,3.317a2.417,2.417,0,0,1-2.476,1.9c-2.137,0-2.677-1.358-2.554-2.883a9.653,9.653,0,0,1-7.138,2.883c-2.814,0-5.35-1.934-4.959-5.052.516-4.1,3.777-5.25,7.63-5.693l3.057-.338c1.2-.135,2.188-.407,2.364-1.831s-1.2-2.033-2.86-2.033c-3.663,0-4.1,2.711-6.074,2.711a1.7,1.7,0,0,1-1.858-1.9c.247-1.966,3.338-4.474,8.423-4.474,4.745,0,7.842,1.527,7.4,5.084Zm-4.5-3.56a5.017,5.017,0,0,1-2.23.779l-1.833.27c-2.106.307-3.3.95-3.489,2.442-.141,1.117.8,2.03,2.487,2.03,2.713,0,4.592-1.761,4.826-3.59Z" transform="translate(-11.216 95.162)"/></g><g transform="translate(1116.285 56.021)"><g class="j" transform="matrix(1, 0, 0, 1, -1098, -62.02)"><g class="e" transform="translate(1098 62.02)"><path class="h" d="M19.1,0H105.9C116.45,0,125,8.059,125,18s-8.55,18-19.1,18H19.1C8.55,36,0,27.941,0,18S8.55,0,19.1,0Z"/><path class="i" d="M 19.09721374511719 1 C 14.25216674804688 1 9.700035095214844 2.775615692138672 6.279335021972656 5.999782562255859 C 2.874900817871094 9.208616256713867 1 13.47036743164062 1 18 C 1 22.52961730957031 2.874900817871094 26.79138374328613 6.279335021972656 30.00021743774414 C 9.700035095214844 33.22438430786133 14.25216674804688 35 19.09721374511719 35 L 105.9027709960938 35 C 110.7478179931641 35 115.2999496459961 33.22438430786133 118.7206497192383 30.00021743774414 C 122.1250991821289 26.79138374328613 124 22.52961730957031 124 18 C 124 13.47036743164062 122.1250991821289 9.208616256713867 118.7206497192383 5.999782562255859 C 115.2999649047852 2.775615692138672 110.7478179931641 1 105.9027709960938 1 L 19.09721374511719 1 M 19.09721374511719 0 L 105.9027709960938 0 C 116.4498672485352 0 125 8.058866500854492 125 18 C 125 27.94111633300781 116.4498672485352 36 105.9027709960938 36 L 19.09721374511719 36 C 8.550117492675781 36 0 27.94111633300781 0 18 C 0 8.058866500854492 8.550117492675781 0 19.09721374511719 0 Z"/></g></g><g transform="translate(94.477 12)"><path class="g" d="M280.193,1310.88a4.8,4.8,0,0,1,2.146,3.132,18.472,18.472,0,0,1,.385,2,8.569,8.569,0,0,1,.491,1.032,1.127,1.127,0,0,1-.1.812,2.508,2.508,0,0,1-.924,1.075,7.731,7.731,0,0,1-1.7.781c-.7.234-1.391.466-2.063.759s-1.338.564-1.972.914a13.216,13.216,0,0,1-1.58.723,4.28,4.28,0,0,1-4.363-.869,7.506,7.506,0,0,1-1.121-1.2,1.319,1.319,0,0,1-.069-1.536,16.879,16.879,0,0,1,1.975-2.218,11.369,11.369,0,0,1,.936-3.049,6.671,6.671,0,0,1,3.566-2.727A5.9,5.9,0,0,1,280.193,1310.88Zm-6.068,8.649a6.577,6.577,0,0,0,1.287-.015,15.936,15.936,0,0,0,2.563-.539,9.786,9.786,0,0,0,3.739-2.035,1.793,1.793,0,0,0,.365-1.433,5.508,5.508,0,0,0-.326-1.552,10.5,10.5,0,0,0-.449-1.046s-3.271.042-5.051,1.659S274.125,1319.529,274.125,1319.529Zm4.639-8.567a6.4,6.4,0,0,0-2.823.125,5.944,5.944,0,0,0-2.572,1.631,6.52,6.52,0,0,0-1.23,2.177,8.387,8.387,0,0,0-.341,2.881,2.015,2.015,0,0,0,.143.467,2.594,2.594,0,0,0,.744.865,1.471,1.471,0,0,0,.694.307c.1.017.174.012.181-.153a12.218,12.218,0,0,1,1.171-3.762,5.38,5.38,0,0,1,3.285-2.675,16.138,16.138,0,0,1,2.845-.536,2.4,2.4,0,0,0-.579-.671c-.258-.189-.664-.421-.664-.421a17.483,17.483,0,0,0-3.6,1.374,9.143,9.143,0,0,0-2.22,2.167.279.279,0,0,1-.375.024.272.272,0,0,1-.068-.367,7.166,7.166,0,0,1,2.211-2.182A13.8,13.8,0,0,1,278.764,1310.963Zm-7.553,6.27a8.5,8.5,0,0,0-1.428,1.666.667.667,0,0,0,.055.75,5.318,5.318,0,0,0,.709.823,7.69,7.69,0,0,0,1.051.849,2.961,2.961,0,0,0,1.8.47,6.835,6.835,0,0,0,2.31-.665c.292-.145,1.8-.846,2.26-1.054s1.041-.437,1.509-.609a19.259,19.259,0,0,0,1.884-.734,2.438,2.438,0,0,0,1.163-.993.752.752,0,0,0,.041-.759c-.037-.072-.058-.075-.1-.008a13.747,13.747,0,0,1-3.193,2.066,16.294,16.294,0,0,1-3.909,1.05,4.868,4.868,0,0,1-3.184-.591A2.628,2.628,0,0,1,271.211,1317.233Z" transform="translate(-269.117 -1310.257)"/></g><text class="f" transform="translate(52.387 23)"><tspan x="-36.495" y="0">Compradores</tspan></text></g></g></g></svg>