<svg xmlns="http://www.w3.org/2000/svg" width="65.2" height="68.308" viewBox="0 0 65.2 68.308"><defs><style>.a{fill:#1cb0d3;}</style></defs><g transform="translate(0 0)"><path class="a" d="M-337.082,1395.975c-.367-.035-.733-.09-1.1-.1a1.315,1.315,0,0,1-1.315-.82,1.391,1.391,0,0,1,.25-1.547q1.238-1.44,2.5-2.863,3.834-4.348,7.673-8.692,4.675-5.294,9.349-10.589,3.722-4.225,7.43-8.461c1.115-1.267,2.262-2.506,3.347-3.8a1.988,1.988,0,0,0,.452-1.168c.026-7.87.017-15.74.025-23.611a1,1,0,0,0-.429-.952,3.23,3.23,0,0,1-1.051-3.577,3.3,3.3,0,0,1,3.092-2.129,3.262,3.262,0,0,1,3.01,2.231,3.145,3.145,0,0,1-1.319,3.655c-.472.308-.472.308-.38,1.715h.955q9.279,0,18.558-.005c1.088,0,1.723.653,1.56,1.654a1.858,1.858,0,0,1-.446.865c-1.555,1.768-3.131,3.517-4.744,5.321.571.687,1.141,1.385,1.723,2.072q1.527,1.8,3.069,3.6a1.5,1.5,0,0,1,.388,1.752,1.542,1.542,0,0,1-1.547.828q-2.971,0-5.941,0h-13.573c-.014.291-.033.507-.033.723,0,1.957-.017,3.913.014,5.87a1.572,1.572,0,0,0,.341.938q5.671,6.5,11.378,12.974,6.456,7.364,12.9,14.739,2.986,3.407,5.991,6.8c.826.936.7,1.731-.423,2.58Zm2-2.9h56.028l-15.117-17.235c-.173.141-.349.275-.516.42q-2.7,2.331-5.388,4.667c-1.086.942-1.919.836-2.686-.355-1-1.559-2-3.121-3.132-4.879a9.985,9.985,0,0,1-.737.953q-3.457,3.477-6.935,6.934c-1.024,1.018-2.029.879-2.683-.353-.414-.781-.817-1.568-1.232-2.348-.848-1.594-1.7-3.185-2.586-4.842Zm20.657-12.507a7.519,7.519,0,0,1,.532-.7q3.439-3.45,6.889-6.888a5.8,5.8,0,0,1,.483-.459,1.414,1.414,0,0,1,2.183.321c.365.528.7,1.075,1.049,1.615.749,1.168,1.5,2.338,2.25,3.52l4.97-4.294L-307,1361.239c-.111.119-.187.195-.258.275l-4.456,5.042q-3.044,3.446-6.079,6.9a.579.579,0,0,0-.1.507C-316.786,1376.1-315.656,1378.231-314.42,1380.572Zm8.86-38.506a1.107,1.107,0,0,0,.2.054c4.134.005,8.268.013,12.4,0a.948.948,0,0,0,.618-.292c.838-.917,1.648-1.859,2.467-2.793.251-.286.5-.575.788-.906H-305.56Zm0,6.363h16.644c-.889-1.045-1.728-2.014-2.542-3a1.112,1.112,0,0,0-.969-.426c-4.157.015-8.314.009-12.47.011-.215,0-.43.018-.663.028Z" transform="translate(339.629 -1327.667)"/></g></svg>