<svg xmlns="http://www.w3.org/2000/svg" width="25.372" height="25.291" viewBox="0 0 25.372 25.291"><defs><style>.a{fill:#135aa3;}</style></defs><g transform="translate(0 0)"><path class="a" d="M632.427,1254.736a12.494,12.494,0,0,1,9.156,3.65,12.657,12.657,0,0,1-8.96,21.64,12.326,12.326,0,0,1-9.042-3.667,12.055,12.055,0,0,1-3.685-8.872,12.829,12.829,0,0,1,1.679-6.433,12.4,12.4,0,0,1,10.852-6.318Zm.089.981a11.517,11.517,0,0,0-5.8,1.568,11.376,11.376,0,0,0-4.283,4.222,11.581,11.581,0,0,0-1.54,5.919,10.96,10.96,0,0,0,3.409,8.159,11.338,11.338,0,0,0,8.218,3.328,11.967,11.967,0,0,0,5.945-1.53,11.055,11.055,0,0,0,4.264-4.185,11.6,11.6,0,0,0,1.531-5.9,11.186,11.186,0,0,0-5.842-10.011A11.824,11.824,0,0,0,632.515,1255.717Z" transform="translate(-619.896 -1254.736)"/></g><g transform="translate(6.411 5.866)"><g transform="translate(0 0)"><path class="a" d="M652.882,1276.277a3.129,3.129,0,0,1,3.281,3.119v6.557a3.323,3.323,0,0,1-3.112,3.261c-1.664,0-5.58.005-6.879,0a3.155,3.155,0,0,1-2.732-3.115v-6.716a3.4,3.4,0,0,1,3.112-3.106Zm-8.424,9c0,1.505.707,2.885,2.58,2.908,1,.012,3.634.019,5.541,0s2.563-1.47,2.563-2.921c0-1.1,0-3.889,0-5.4a2.452,2.452,0,0,0-2.578-2.563h-5.54a2.62,2.62,0,0,0-2.561,2.563C644.457,1281.163,644.457,1283.775,644.457,1285.28Z" transform="translate(-643.44 -1276.277)"/></g><g transform="translate(3.211 3.729)"><path class="a" d="M658.177,1289.972a2.934,2.934,0,0,1,2.15.857,2.973,2.973,0,0,1-2.1,5.082,2.9,2.9,0,0,1-2.124-.861,2.832,2.832,0,0,1-.865-2.084,3.011,3.011,0,0,1,.394-1.511,2.912,2.912,0,0,1,2.549-1.484Zm.017.823a2.133,2.133,0,0,0-1.826,1.067,2.162,2.162,0,0,0-.279,1.09,2.1,2.1,0,0,0,2.1,2.116,2.138,2.138,0,0,0,1.076-.282,2.017,2.017,0,0,0,.772-.771,2.165,2.165,0,0,0,.277-1.087,2.111,2.111,0,0,0-.277-1.075,2.068,2.068,0,0,0-.78-.77A2.111,2.111,0,0,0,658.194,1290.8Z" transform="translate(-655.234 -1289.972)"/></g><circle class="a" cx="0.789" cy="0.789" r="0.789" transform="translate(8.884 2.173)"/></g></svg>