<svg xmlns="http://www.w3.org/2000/svg" width="25.372" height="25.291" viewBox="0 0 25.372 25.291"><defs><style>.a,.b{fill:#135aa3;}.b{fill-rule:evenodd;}</style></defs><g transform="translate(0)"><g transform="translate(0 0)"><path class="a" d="M731.9,1137.974a12.494,12.494,0,0,1,9.156,3.65,12.657,12.657,0,0,1-8.96,21.64,12.325,12.325,0,0,1-9.042-3.667,12.054,12.054,0,0,1-3.685-8.872,12.828,12.828,0,0,1,1.679-6.433,12.4,12.4,0,0,1,10.852-6.319Zm.088.981a11.517,11.517,0,0,0-5.8,1.568,11.373,11.373,0,0,0-4.283,4.222,11.58,11.58,0,0,0-1.54,5.918,10.96,10.96,0,0,0,3.409,8.159,11.337,11.337,0,0,0,8.218,3.328,11.963,11.963,0,0,0,5.945-1.53,11.052,11.052,0,0,0,4.264-4.185,11.6,11.6,0,0,0,1.531-5.9,11.185,11.185,0,0,0-5.842-10.012A11.824,11.824,0,0,0,731.986,1138.955Z" transform="translate(-719.367 -1137.974)"/></g><path class="b" d="M746.912,1168.745v5.7h2.712v-7.758h-2.712Zm11.569.321c-.179-1.47-.849-2.384-2.833-2.384a2.42,2.42,0,0,0-2.277,1.049h-.036v-1.049h-2.162v7.758h2.262v-3.847c0-1.014.2-1.991,1.442-1.991s1.341,1.156,1.341,2.063v3.775h2.327v-4.261a9.073,9.073,0,0,0-.064-1.114Zm-10.213-6.259a1.356,1.356,0,1,0,1.356,1.356,1.355,1.355,0,0,0-1.356-1.356Z" transform="translate(-739.412 -1156.045)"/></g></svg>