<svg xmlns="http://www.w3.org/2000/svg" width="224.027" height="24.99" viewBox="0 0 224.027 24.99"><defs><style>.a{fill:#fff;}</style></defs><path class="a" d="M29.118-95.162c8.028,0,12.022,4,11.384,6.246a4.081,4.081,0,0,1-4,2.842c-4.056,0-2.012-3.973-8.416-3.973-4.4,0-6.739,2.161-8.158,7.174-.4,2.276.031,7.383,6.094,7.383,5.5,0,6.178-4.285,9.551-4.285,2.634,0,3.928,1.4,3.566,2.685C38.188-73.75,33.09-69.795,23.1-70.5c-10.046-.7-13.607-7.11-11.131-14.14,1.846-6.523,7.237-10.523,17.144-10.523" transform="translate(-11.216 95.162)"/><path class="a" d="M57.969-95.144c10.555.167,15.388,6.345,13.191,14.4C69.133-73.306,62.9-70.416,53.194-70.416c-10.172,0-14.611-6.461-12.921-13.55,1.323-5.543,6.43-11.349,17.7-11.178M54.542-75.309c5.113-.038,7.607-2.516,8.475-7.045.823-4.292-1.5-7.761-5.65-7.906C52.089-90.441,49-87.041,48.553-82.9c-.4,3.713,1.054,7.627,5.989,7.592" transform="translate(-11.216 95.162)"/><path class="a" d="M89.117-72.2c-1.068,1.853-3.759,1.78-5.772,1.78s-4.643-.371-4.918-2.223L72.339-90.376a4.565,4.565,0,0,1-.2-1.611c.465-2.166,2.873-3.15,4.487-3.15,1.737,0,3.589.587,3.97,2.56l3.867,15.025.128-.026,7.686-14.815a4.883,4.883,0,0,1,4.867-2.754c1.617,0,3.8,1.375,3.344,3.544a6.761,6.761,0,0,1-.8,1.891Z" transform="translate(-11.216 95.162)"/><path class="a" d="M101.686-91.914a3.935,3.935,0,0,1,3.921-3.233c1.973,0,4.714-.36,4.714,3.353l-2.349,18.246c-.735,2.671-2.809,3.131-4.782,3.131s-4.195-1.063-3.784-3Z" transform="translate(-11.216 95.162)"/><path class="a" d="M115.7-91.76c.307-2.474,1.7-3.254,3.659-3.254H131.6c1.626,0,2.752.472,2.532,2.237s-1.466,2.236-3.094,2.236h-9.929l-.714,5.7h8.4c1.46,0,2.559.4,2.341,2.133s-1.418,2.135-2.873,2.135h-8.4l-.96,7.625a3.037,3.037,0,0,1-3.126,2.779,2.274,2.274,0,0,1-2.431-2.779Z" transform="translate(-11.216 95.162)"/><path class="a" d="M148.822-75.39c-.256,2.065.19,2.538.092,3.317a2.409,2.409,0,0,1-2.475,1.9c-2.135,0-2.677-1.358-2.551-2.883a9.657,9.657,0,0,1-7.14,2.883c-2.814,0-5.348-1.934-4.961-5.052.517-4.1,3.779-5.25,7.631-5.693l3.061-.338c1.2-.135,2.184-.407,2.364-1.831s-1.2-2.033-2.864-2.033c-3.66,0-4.1,2.711-6.07,2.711a1.7,1.7,0,0,1-1.862-1.9c.251-1.966,3.342-4.474,8.425-4.474,4.743,0,7.839,1.527,7.394,5.084Zm-4.5-3.56a5.028,5.028,0,0,1-2.234.779l-1.83.27c-2.106.307-3.306.95-3.489,2.442-.141,1.117.792,2.03,2.489,2.03,2.708,0,4.592-1.761,4.821-3.59Z" transform="translate(-11.216 95.162)"/><path class="a" d="M163.11-88.779c4.135,0,6.925,2.339,6.637,4.643A2.426,2.426,0,0,1,167.174-82c-2.338,0-1.124-2.914-4.684-2.914-1.932,0-4.369,1.32-4.929,5.794-.387,3.085.819,5.085,3.532,5.085,3.455,0,3.109-3.186,5.718-3.186a1.7,1.7,0,0,1,1.831,1.9c-.273,2.171-3.089,5.153-8.171,5.153-6.1,0-8.509-3.762-7.861-8.948.719-5.691,4.433-9.658,10.5-9.658" transform="translate(-11.216 95.162)"/><path class="a" d="M173.8-85.085h-.85c-1.388,0-1.9-.54-1.76-1.627s.779-1.624,2.169-1.624h.848l.379-3.019a2.62,2.62,0,0,1,2.785-2.474,1.975,1.975,0,0,1,2.164,2.474l-.38,3.019h1.488c1.459,0,2.187.44,2.035,1.624s-.984,1.627-2.441,1.627h-1.489l-1.244,9.9c-.092.746.261,1.154,1.143,1.154h.713c1.085,0,1.655.606,1.517,1.657-.176,1.425-1.493,2.206-3.866,2.206-3.594,0-4.9-1.493-4.53-4.408Z" transform="translate(-11.216 95.162)"/><path class="a" d="M200.264-72.646a2.461,2.461,0,0,1-2.549,2.474c-1.562,0-2.114-.983-1.93-2.474l.086-.646H195.8a8.157,8.157,0,0,1-6.386,3.12c-2.981,0-6.05-1.492-5.419-6.508l1.205-9.625a2.538,2.538,0,0,1,2.789-2.474c1.931,0,2.327,1.154,2.162,2.474l-1.084,8.641c-.252,2,.551,3.425,2.685,3.425a4.485,4.485,0,0,0,4.252-3.9l1.023-8.168a2.536,2.536,0,0,1,2.787-2.474c1.933,0,2.33,1.154,2.164,2.474Z" transform="translate(-11.216 95.162)"/><path class="a" d="M206.2-86.475a2.477,2.477,0,0,1,2.526-2.3,1.855,1.855,0,0,1,1.946,2.3l-.239,1.9h.067c.839-2.067,2.225-4.2,4.629-4.2a2.164,2.164,0,0,1,2.411,2.407,2.621,2.621,0,0,1-2.75,2.473h-.881c-2,0-3.261,1.391-3.774,5.488l-.724,5.764a2.534,2.534,0,0,1-2.782,2.474c-1.935,0-.429-16.3-.429-16.3" transform="translate(-11.216 95.162)"/><path class="a" d="M234.156-75.39c-.259,2.065.19,2.538.094,3.317a2.417,2.417,0,0,1-2.476,1.9c-2.137,0-2.677-1.358-2.554-2.883a9.653,9.653,0,0,1-7.138,2.883c-2.814,0-5.35-1.934-4.959-5.052.516-4.1,3.777-5.25,7.63-5.693l3.057-.338c1.2-.135,2.188-.407,2.364-1.831s-1.2-2.033-2.86-2.033c-3.663,0-4.1,2.711-6.074,2.711a1.7,1.7,0,0,1-1.858-1.9c.247-1.966,3.338-4.474,8.423-4.474,4.745,0,7.842,1.527,7.4,5.084Zm-4.5-3.56a5.017,5.017,0,0,1-2.23.779l-1.833.27c-2.106.307-3.3.95-3.489,2.442-.141,1.117.8,2.03,2.487,2.03,2.713,0,4.592-1.761,4.826-3.59Z" transform="translate(-11.216 95.162)"/></svg>