<svg xmlns="http://www.w3.org/2000/svg" xmlns:xlink="http://www.w3.org/1999/xlink" width="230.733" height="98.65" viewBox="0 0 230.733 98.65"><defs><style>.a{fill:none;}.b{fill:#002f54;}.c{clip-path:url(#a);}.d{fill:url(#b);}</style><clipPath id="a"><path class="a" d="M196.207,1007.692a54.882,54.882,0,0,0,17.986-2.906c1.453-.546,2.725-.909,3.815-1.454a22.083,22.083,0,0,1-6.541,9.084,43.593,43.593,0,0,1-19.621,8.176,40.644,40.644,0,0,0,4.36-12.718m-30.159,8.721c-.182-.181-.363-.181-.545-.363-2.543-1.272-3.634-6.9-2.18-15.443a80.2,80.2,0,0,0,15.806,5.087,74.014,74.014,0,0,0,12.536,1.635c-2,8.721-4.542,13.445-6.359,13.445h-.363a42.407,42.407,0,0,1-18.895-4.36M142.43,988.8a18.254,18.254,0,0,1-.727-4.542,37.151,37.151,0,0,0,5.632,6.358,51.674,51.674,0,0,0,11.628,8.176,40.7,40.7,0,0,0-.545,13.263A45.39,45.39,0,0,1,142.43,988.8m56.684-12.173v-5.269A35.139,35.139,0,0,0,214.375,967a55.083,55.083,0,0,1,6,23.982,39.713,39.713,0,0,1-.545,6.541,42.192,42.192,0,0,1-7.085,3.269,51.13,51.13,0,0,1-15.625,2.544,168.336,168.336,0,0,0,2-26.707m-19.077,24.89a70.284,70.284,0,0,1-15.806-5.268,109.693,109.693,0,0,1,9.266-25.435c.727-1.454,1.272-2.725,2-4.179a55.031,55.031,0,0,0,10.537,3.452,64.451,64.451,0,0,0,8.539,1.089v5.27a143.858,143.858,0,0,1-2.18,26.525,56,56,0,0,1-12.354-1.453m-29.614-14.352a29.4,29.4,0,0,1-7.812-11.083,40.378,40.378,0,0,1,6.177-12.536,47.3,47.3,0,0,1,10.719-10.174,21.041,21.041,0,0,0,5.087,6.177,38.858,38.858,0,0,0,7.085,5.088c-.727,1.453-1.453,2.725-2.18,4.178a123.676,123.676,0,0,0-9.265,25.253,41.527,41.527,0,0,1-9.811-6.9m45.6-42.331a59.888,59.888,0,0,1,13.989,14.716c.727,1.091,1.453,2.181,2.18,3.452a30.131,30.131,0,0,1-13.263,3.634,123.494,123.494,0,0,0-2.907-21.8m-9.084,20.712a54.326,54.326,0,0,1-9.265-2.725A97.764,97.764,0,0,1,191.12,944.1a120.337,120.337,0,0,1,3.27,22.528,33.139,33.139,0,0,1-7.267-.909M167.5,956.277a31.9,31.9,0,0,1-4.36-5.45,56.592,56.592,0,0,1,13.989-6.177,50.474,50.474,0,0,1,9.084-2A105.151,105.151,0,0,0,173.5,960.819a43.526,43.526,0,0,1-6-4.542m-9.811-14.535c0,.182-.182.545-.182.727a13.3,13.3,0,0,0,.182,6.541,55.323,55.323,0,0,0-12.536,11.809A20.6,20.6,0,0,0,142.43,965a44.474,44.474,0,0,1,15.261-23.255m4.179,1.635a9.8,9.8,0,0,1,4.179-6.177,27.754,27.754,0,0,1,17.986,1.272,65.929,65.929,0,0,0-22.346,7.993,17.639,17.639,0,0,1,.182-3.088m37.063-6a17.71,17.71,0,0,1,4.179-2,34.486,34.486,0,0,1,6.722,3.633q-5.451-1.091-10.9-1.636m-7.631-4.905a55.569,55.569,0,0,1,5.814.909,29.869,29.869,0,0,0-4,2.544,15.82,15.82,0,0,0-1.817-3.452m-4.905,1.817a34.734,34.734,0,0,0-6.177-1.817,22.173,22.173,0,0,1,4.905-.181q1.09,0,2.725,2.725a5.446,5.446,0,0,0-1.453-.727m-50.144,42.331a48.018,48.018,0,0,0,1.817,13.445l.182.908v.181a48.764,48.764,0,0,0,74.489,25.981l.182-.182c.545-.363.909-.726,1.453-1.09a49.148,49.148,0,0,0,18.35-27.434,5.309,5.309,0,0,0,.364-1.635v-.363a48.387,48.387,0,0,0-2.907-29.069,2.4,2.4,0,0,0-3.088-1.09,2.188,2.188,0,0,0-1.09,2.907,43.5,43.5,0,0,1,2.18,27.978,15.258,15.258,0,0,1-3.452,6V990.8a59.538,59.538,0,0,0-6.9-26.707A18.527,18.527,0,0,0,224,953.915a2.316,2.316,0,1,0-4.542-.909h0a13.6,13.6,0,0,1-3.815,7.086c-.727-1.091-1.272-2.181-2-3.271a68.721,68.721,0,0,0-13.989-15.079,45.964,45.964,0,0,1,18.35,4.905,2.173,2.173,0,0,0,2.543-.182,2.3,2.3,0,0,0,.182-3.27c-7.267-10.356-19.985-15.988-35.791-15.988a49.556,49.556,0,0,0-48.69,49.417h0" transform="translate(-136.253 -927.208)"/></clipPath><radialGradient id="b" cx="0.975" cy="0.159" r="0.829" gradientTransform="matrix(1, 0, 0, -1, 0, -6.897)" gradientUnits="objectBoundingBox"><stop offset="0" stop-color="#fff"/><stop offset="0.06" stop-color="#ebf9fe"/><stop offset="0.18" stop-color="#b6e8fa"/><stop offset="0.36" stop-color="#61cdf5"/><stop offset="0.54" stop-color="#00aeef"/><stop offset="1" stop-color="#002f54"/></radialGradient></defs><g transform="translate(-136.253 -927.208)"><rect class="b" width="20.166" height="64.133" transform="translate(246.533 944.649)"/><path class="b" d="M449.009,1005.627v22.892H429.024V964.386H473.9v15.443h-24.89v10.355h22.165v15.443Z" transform="translate(-155.422 -19.736)"/><g transform="translate(321.385 943.378)"><path class="b" d="M576.477,1025.445a43.445,43.445,0,0,1-14.353,2.544c-17.441,0-31.249-11.264-31.249-34.156,0-21.438,14.534-32.158,31.249-32.158a52.363,52.363,0,0,1,14.171,2v16.9a27.708,27.708,0,0,0-9.992-2.362c-8.539,0-15.08,5.632-15.08,16.169,0,11.083,6,16.533,14.353,16.533a25.249,25.249,0,0,0,10.9-2.543Z" transform="translate(-530.875 -961.675)"/></g><g transform="translate(136.253 927.208)"><g transform="translate(0 0)"><g class="c"><g transform="translate(0 0.364)"><rect class="d" width="97.925" height="97.925"/></g></g></g></g></g></svg>