<svg xmlns="http://www.w3.org/2000/svg" width="504" height="80" viewBox="0 0 504 80"><defs><style>.a{fill:#213b7d;}.b,.c{fill:#fff;}.b{font-size:16px;font-family:Lato-Regular, Lato;}</style></defs><g transform="translate(-101 -1761)"><g transform="translate(0 580)"><rect class="a" width="504" height="80" rx="15" transform="translate(101 1181)"/></g><text class="b" transform="translate(231 1773)"><tspan x="0" y="16">Digitalice su negocio a través de nuestras </tspan><tspan x="0" y="35">plataformas de autogestión para afiliados y </tspan><tspan x="0" y="54">compradores.</tspan></text><g transform="translate(151 1710.528)"><g transform="translate(0 70.472)"><g transform="translate(0 0)"><path class="c" d="M56.153,104.162H53.169V73.89a3.418,3.418,0,0,0-3.418-3.418H6.982A3.418,3.418,0,0,0,3.564,73.89v30.273H.847a.847.847,0,0,0-.847.847v1.87a4.9,4.9,0,0,0,4.9,4.9H36.8a.847.847,0,0,0,0-1.693H4.9a3.209,3.209,0,0,1-3.209-3.209v-1.023H21.645a3.022,3.022,0,0,0,3.017,2.963h7.676a3.022,3.022,0,0,0,3.017-2.963H55.307v1.023a3.209,3.209,0,0,1-3.209,3.209H40.747a.847.847,0,0,0,0,1.693H52.1a4.9,4.9,0,0,0,4.9-4.9v-1.87A.847.847,0,0,0,56.153,104.162Zm-23.815,2.963H24.662a1.327,1.327,0,0,1-1.324-1.27H33.662A1.327,1.327,0,0,1,32.338,107.125Zm19.138-2.963H5.257V73.89a1.727,1.727,0,0,1,1.725-1.725H49.751a1.727,1.727,0,0,1,1.725,1.725Z" transform="translate(0 -70.472)"/></g></g><g transform="translate(6.725 73.632)"><g transform="translate(0 0)"><path class="c" d="M102.84,98.86H70.045a.847.847,0,1,0,0,1.693h31.948V126.23H62.1V100.553h4a.847.847,0,0,0,0-1.693H61.25a.847.847,0,0,0-.847.847v27.37a.847.847,0,0,0,.847.847H102.84a.847.847,0,0,0,.847-.847V99.707A.846.846,0,0,0,102.84,98.86Z" transform="translate(-60.403 -98.86)"/></g></g></g></g></svg>