<svg xmlns="http://www.w3.org/2000/svg" xmlns:xlink="http://www.w3.org/1999/xlink" width="1138.5" height="352.041" viewBox="0 0 1138.5 352.041"><defs><style>.a{fill:none;}.b,.c,.i,.l,.m{fill:#135aa3;}.b{font-size:38px;}.b,.d,.i{font-family:Lato-Bold, Lato;font-weight:700;}.c,.i{font-size:30px;}.c,.j,.n{font-family:Lato-Regular, Lato;}.e,.n{font-size:20px;}.f{fill:#002f54;}.g{clip-path:url(#a);}.h{fill:url(#b);}.j,.n{font-weight:400;}.k{fill:#1cb0d3;font-size:100px;font-family:Lato-Black, Lato;font-weight:800;}.l{font-size:80px;}</style><clipPath id="a"><path class="a" d="M196.207,1007.692a54.882,54.882,0,0,0,17.986-2.906c1.453-.546,2.725-.909,3.815-1.454a22.083,22.083,0,0,1-6.541,9.084,43.593,43.593,0,0,1-19.621,8.176,40.644,40.644,0,0,0,4.36-12.718m-30.159,8.721c-.182-.181-.363-.181-.545-.363-2.543-1.272-3.634-6.9-2.18-15.443a80.2,80.2,0,0,0,15.806,5.087,74.014,74.014,0,0,0,12.536,1.635c-2,8.721-4.542,13.445-6.359,13.445h-.363a42.407,42.407,0,0,1-18.895-4.36M142.43,988.8a18.254,18.254,0,0,1-.727-4.542,37.151,37.151,0,0,0,5.632,6.358,51.674,51.674,0,0,0,11.628,8.176,40.7,40.7,0,0,0-.545,13.263A45.39,45.39,0,0,1,142.43,988.8m56.684-12.173v-5.269A35.139,35.139,0,0,0,214.375,967a55.083,55.083,0,0,1,6,23.982,39.713,39.713,0,0,1-.545,6.541,42.192,42.192,0,0,1-7.085,3.269,51.13,51.13,0,0,1-15.625,2.544,168.336,168.336,0,0,0,2-26.707m-19.077,24.89a70.284,70.284,0,0,1-15.806-5.268,109.693,109.693,0,0,1,9.266-25.435c.727-1.454,1.272-2.725,2-4.179a55.031,55.031,0,0,0,10.537,3.452,64.451,64.451,0,0,0,8.539,1.089v5.27a143.858,143.858,0,0,1-2.18,26.525,56,56,0,0,1-12.354-1.453m-29.614-14.352a29.4,29.4,0,0,1-7.812-11.083,40.378,40.378,0,0,1,6.177-12.536,47.3,47.3,0,0,1,10.719-10.174,21.041,21.041,0,0,0,5.087,6.177,38.858,38.858,0,0,0,7.085,5.088c-.727,1.453-1.453,2.725-2.18,4.178a123.676,123.676,0,0,0-9.265,25.253,41.527,41.527,0,0,1-9.811-6.9m45.6-42.331a59.888,59.888,0,0,1,13.989,14.716c.727,1.091,1.453,2.181,2.18,3.452a30.131,30.131,0,0,1-13.263,3.634,123.494,123.494,0,0,0-2.907-21.8m-9.084,20.712a54.326,54.326,0,0,1-9.265-2.725A97.764,97.764,0,0,1,191.12,944.1a120.337,120.337,0,0,1,3.27,22.528,33.139,33.139,0,0,1-7.267-.909M167.5,956.277a31.9,31.9,0,0,1-4.36-5.45,56.592,56.592,0,0,1,13.989-6.177,50.474,50.474,0,0,1,9.084-2A105.151,105.151,0,0,0,173.5,960.819a43.526,43.526,0,0,1-6-4.542m-9.811-14.535c0,.182-.182.545-.182.727a13.3,13.3,0,0,0,.182,6.541,55.323,55.323,0,0,0-12.536,11.809A20.6,20.6,0,0,0,142.43,965a44.474,44.474,0,0,1,15.261-23.255m4.179,1.635a9.8,9.8,0,0,1,4.179-6.177,27.754,27.754,0,0,1,17.986,1.272,65.929,65.929,0,0,0-22.346,7.993,17.639,17.639,0,0,1,.182-3.088m37.063-6a17.71,17.71,0,0,1,4.179-2,34.486,34.486,0,0,1,6.722,3.633q-5.451-1.091-10.9-1.636m-7.631-4.905a55.569,55.569,0,0,1,5.814.909,29.869,29.869,0,0,0-4,2.544,15.82,15.82,0,0,0-1.817-3.452m-4.905,1.817a34.734,34.734,0,0,0-6.177-1.817,22.173,22.173,0,0,1,4.905-.181q1.09,0,2.725,2.725a5.446,5.446,0,0,0-1.453-.727m-50.144,42.331a48.018,48.018,0,0,0,1.817,13.445l.182.908v.181a48.764,48.764,0,0,0,74.489,25.981l.182-.182c.545-.363.909-.726,1.453-1.09a49.148,49.148,0,0,0,18.35-27.434,5.309,5.309,0,0,0,.364-1.635v-.363a48.387,48.387,0,0,0-2.907-29.069,2.4,2.4,0,0,0-3.088-1.09,2.188,2.188,0,0,0-1.09,2.907,43.5,43.5,0,0,1,2.18,27.978,15.258,15.258,0,0,1-3.452,6V990.8a59.538,59.538,0,0,0-6.9-26.707A18.527,18.527,0,0,0,224,953.915a2.316,2.316,0,1,0-4.542-.909h0a13.6,13.6,0,0,1-3.815,7.086c-.727-1.091-1.272-2.181-2-3.271a68.721,68.721,0,0,0-13.989-15.079,45.964,45.964,0,0,1,18.35,4.905,2.173,2.173,0,0,0,2.543-.182,2.3,2.3,0,0,0,.182-3.27c-7.267-10.356-19.985-15.988-35.791-15.988a49.556,49.556,0,0,0-48.69,49.417h0" transform="translate(-136.253 -927.208)"/></clipPath><radialGradient id="b" cx="0.975" cy="0.159" r="0.829" gradientTransform="matrix(1, 0, 0, -1, 0, -6.897)" gradientUnits="objectBoundingBox"><stop offset="0" stop-color="#fff"/><stop offset="0.06" stop-color="#ebf9fe"/><stop offset="0.18" stop-color="#b6e8fa"/><stop offset="0.36" stop-color="#61cdf5"/><stop offset="0.54" stop-color="#00aeef"/><stop offset="1" stop-color="#002f54"/></radialGradient></defs><text class="b" transform="translate(533.5 38)"><tspan x="-358.948" y="0">Somos la solución que su empresa necesita​</tspan></text><g transform="translate(-375.5 -754.959)"><text class="c" transform="translate(782 1027)"><tspan x="67.02" y="30">Respaldo</tspan><tspan x="81.33" y="66">del</tspan><tspan class="d" y="66" xml:space="preserve"> IFC</tspan><tspan class="e" y="66">​</tspan></text></g><g transform="translate(282.247 -768.858)"><rect class="f" width="20.166" height="64.133" transform="translate(246.533 944.649)"/><path class="f" d="M449.009,1005.627v22.892H429.024V964.386H473.9v15.443h-24.89v10.355h22.165v15.443Z" transform="translate(-155.422 -19.736)"/><g transform="translate(321.385 943.378)"><path class="f" d="M576.477,1025.445a43.445,43.445,0,0,1-14.353,2.544c-17.441,0-31.249-11.264-31.249-34.156,0-21.438,14.534-32.158,31.249-32.158a52.363,52.363,0,0,1,14.171,2v16.9a27.708,27.708,0,0,0-9.992-2.362c-8.539,0-15.08,5.632-15.08,16.169,0,11.083,6,16.533,14.353,16.533a25.249,25.249,0,0,0,10.9-2.543Z" transform="translate(-530.875 -961.675)"/></g><g transform="translate(136.253 927.208)"><g transform="translate(0 0)"><g class="g"><g transform="translate(0 0.364)"><rect class="h" width="97.925" height="97.925"/></g></g></g></g></g><g transform="translate(22.5 -755.959)"><text class="i" transform="translate(814 1027)"><tspan x="17.165" y="30">compradores</tspan><tspan class="j"><tspan x="5.825" y="66">a nivel</tspan><tspan class="d" y="66"> </tspan><tspan y="66">nacional</tspan></tspan></text><text class="c" transform="translate(861 987)"><tspan x="107.505" y="30">mil</tspan><tspan class="e" y="30">​</tspan></text><text class="k" transform="translate(889 1016)"><tspan x="-75.4" y="0">+</tspan><tspan class="l" y="0">70</tspan></text></g><g transform="translate(-452.317 -1397.5)"><path class="m" d="M1389.768,1488.5c1.319.248,2.639.491,3.956.749a4.366,4.366,0,0,1,.651.249c-.972.263-1.832.544-2.713.721s-1.054.664-.952,1.482c.14,1.121.163,2.257.246,3.556-2.047-.823-2.715-2.567-3.542-4.266a18.189,18.189,0,0,0-7.865,2.828c-1.17.734-2.235,1.633-3.379,2.412-.5.34-.521.653-.285,1.173a7.412,7.412,0,0,1,.582,1.878,4.026,4.026,0,0,1-1.122,3.992c5.65,7.221,9.475,15.352,12.745,23.824a2.547,2.547,0,0,0,1.792-1.676,45.032,45.032,0,0,0,2.38-10.715,120.5,120.5,0,0,0,.666-16.135c-.031-2.14-.181-4.278-.308-6.415-.036-.6.152-.859.761-1.039,6.5-1.916,12.219-.109,17.508,3.67a32.181,32.181,0,0,1,7.225,7.112c-5.633,5.423-9.584,12.012-12.887,19.075a25.277,25.277,0,0,1,2.907.4,6.046,6.046,0,0,1,4.7,6.262,25.342,25.342,0,0,1-.463,4.1c-.085.508-.011.733.444.947,3.672,1.727,4.82,5.938,4.281,9.286a4.792,4.792,0,0,0,.806,4.156c1.917,2.555,1.8,5.587.731,8.474a3.855,3.855,0,0,0,.258,3.61c1.511,2.767,2.051,5.71.034,8.529a9.054,9.054,0,0,1-5.439,3.521c-5.621,1.306-11.271,2.492-16.923,3.661-4.947,1.023-9.921,1.918-14.867,2.949-2.693.562-5.353,1.29-8.112,1.963l.733,2.373c-1.846.611-3.648,1.2-5.446,1.8-2.448.823-4.892,1.657-7.338,2.486h-.189q-2.729-8.313-5.456-16.628-3.5-10.732-6.979-21.473a5.014,5.014,0,0,1-.1-.526l12.939-4.227,1,2.986a5.531,5.531,0,0,0,2.905-2.562c1.315-2.42,2.519-4.9,3.667-7.41,1.531-3.341,2.959-6.723,5.314-9.612a17.247,17.247,0,0,1,7.468-5.419c.167-.062.322-.156.573-.279-3.382-7.482-7.42-14.457-13.546-20.354,1.542-1.61,3.007-3.285,4.625-4.795a24.437,24.437,0,0,1,9.625-5.774c1.4-.42,2.863-.625,4.3-.929Zm-17.446,85.852c4.785-1.029,9.431-2.11,14.112-3.014,7.276-1.406,14.581-2.666,21.863-4.044a16.56,16.56,0,0,0,6.069-2.245,3.2,3.2,0,0,0,1.568-2.933,7.178,7.178,0,0,0-1.844-4.345,1.835,1.835,0,0,1-.218-2.4,9.386,9.386,0,0,0,.832-1.891c1.051-2.974.464-5.087-1.939-7.162-.18-.155-.412-.394-.408-.59a5.236,5.236,0,0,1,.224-1.79c1.609-4.051.391-6.89-3.624-8.264a1.334,1.334,0,0,1-1.027-1.4,10.9,10.9,0,0,1,.257-1.476,35.6,35.6,0,0,0,.7-4.245c.109-2.132-1.09-3.257-3.2-3.328a18.648,18.648,0,0,0-6.371,1.142,64.306,64.306,0,0,0-10.912,5.077c-1.611.877-2.491.419-2.982-1.35-.442-1.594-.98-3.161-1.49-4.786a13.475,13.475,0,0,0-6.035,4.575c-2.081,2.735-3.25,5.93-4.657,9.014-2.046,4.483-4.151,8.951-8.982,11.278Zm22.816-62.889c1.806-1.788,3.88-2.066,6.517-.789,2.4,1.161,3.444,3.031,3.156,5.367l7.022-11.073c-1.84-1.986-.97-4.219-.077-6.448a23.038,23.038,0,0,0-10.773-5.606c-.7-.132-1.094-.06-1.436.724-.809,1.858-1.9,3.515-4.408,3.712Zm9.4,5.407a5.013,5.013,0,0,1-5.448,1.222,6.34,6.34,0,0,1-4.247-3.691l-2.041,10.3a.318.318,0,0,0,.163-.027,36.648,36.648,0,0,1,9.087-3.218,1.009,1.009,0,0,0,.588-.518C1403.293,1519.595,1403.908,1518.229,1404.537,1516.87Zm-49.988,32.392,1.3,3.867,3.842-1.288-1.281-3.836Z" transform="translate(6.389 0)"/><path class="m" d="M1530.538,1600.8c-1.7-.233-3.089-.709-3.724-2.336a3.711,3.711,0,0,1,1.063-4.123,6.591,6.591,0,0,1,5.889-2.086c.823.107,1.32.334,1.2,1.332-.2,1.684-.241,3.386-.445,5.069a1.521,1.521,0,0,1-.748,1.046C1532.732,1600.148,1531.623,1600.444,1530.538,1600.8Z" transform="translate(-144.067 -84.043)"/></g><text class="c" transform="translate(0 272.041)"><tspan x="63.27" y="30">años en la</tspan><tspan class="d"><tspan x="67.425" y="66">industria</tspan><tspan class="n" y="66"></tspan></tspan></text><text class="k" transform="translate(127.5 261.041)"><tspan x="-75.4" y="0">+</tspan><tspan class="l" y="0">70</tspan></text><g transform="translate(-0.5)"><g transform="translate(81 101.296)"><path class="m" d="M1781.663,1215.936l1.171-5.832,1.233.008,1.024,5.515H1809.8a11.512,11.512,0,0,1,.223-2.56,20.99,20.99,0,0,1,1.37-2.823,30.651,30.651,0,0,1,1.206,2.992,12.248,12.248,0,0,1,.18,2.416h24.74l.942-5.466,1.292-.087c.373,1.794.746,3.588,1.216,5.846,1.786,0,3.673-.07,5.554.012,6.79.3,11.5,5.005,11.531,11.814q.118,26.143.006,52.288c-.027,6.8-4.681,11.784-11.492,11.825q-35.338.212-70.679-.014c-6.908-.049-11.335-5.154-11.351-12.322q-.06-25.423,0-50.846c.015-8.112,4.625-12.674,12.779-12.765C1778.747,1215.922,1780.174,1215.936,1781.663,1215.936Zm-14.454,20.5c0,15.15-.125,29.921.072,44.688.064,4.77,4.177,8.161,9.309,8.174q34.611.08,69.221,0c5.993-.015,9.567-3.722,9.608-9.759.058-8.532.022-17.065.024-25.6,0-5.751,0-11.5,0-17.5Zm.28-3.114h87.634c1.369-11.632-3.532-16.442-14.834-14.205.417,1.186.507,2.6,1.258,3.354,2.162,2.174,2.635,4.449.494,6.624a3.807,3.807,0,0,1-5.808-.1c-2.1-2.261-1.588-4.589.7-6.576.346-.3.891-.9.8-1.088-.473-.97-1.11-2.633-1.721-2.647-7.67-.18-15.346-.118-24.031-.118.958,1.95,1.368,3.34,2.21,4.382,1.714,2.12,1.959,4.214.014,6.107a3.889,3.889,0,0,1-5.822-.02c-1.962-1.916-1.637-4,.058-6.1.836-1.039,1.234-2.432,2.17-4.37-8.316,0-15.63-.035-22.944.043a9.914,9.914,0,0,0-2.817.922c.361,1.048.445,2.357,1.137,3.095,1.977,2.11,2.366,4.279.394,6.37a3.811,3.811,0,0,1-5.807.1c-2.029-2.016-1.648-4.21.211-6.4.808-.95,1.012-2.413,1.572-3.853C1769.976,1217.712,1766.1,1221.653,1767.489,1233.323Z" transform="translate(-1764.512 -1210.099)"/></g><text class="c" transform="translate(81 131.697)"><tspan x="12" y="30">1952</tspan></text></g></svg>