<svg xmlns="http://www.w3.org/2000/svg" width="71.626" height="16.962" viewBox="0 0 71.626 16.962"><defs><style>.a,.b,.e{fill:none;}.a{stroke:#fff;}.c{fill:#1cb0d3;}.d,.f{stroke:none;}.f{fill:#fff;}</style></defs><g class="a" transform="translate(27)"><ellipse class="d" cx="9" cy="8.481" rx="9" ry="8.481"/><ellipse class="e" cx="9" cy="8.481" rx="8.5" ry="7.981"/></g><g class="a"><ellipse class="d" cx="9" cy="8.481" rx="9" ry="8.481"/><ellipse class="e" cx="9" cy="8.481" rx="8.5" ry="7.981"/></g><g class="b" transform="translate(53.813 0.088)"><path class="d" d="M8.906,0a8.661,8.661,0,0,1,8.906,8.393,8.661,8.661,0,0,1-8.906,8.393A8.661,8.661,0,0,1,0,8.393,8.661,8.661,0,0,1,8.906,0Z"/><path class="f" d="M 8.90643310546875 1.000000953674316 C 4.546813011169434 1.000000953674316 1.000003814697266 4.31648063659668 1.000003814697266 8.392980575561523 C 1.000003814697266 12.46948051452637 4.546813011169434 15.78596019744873 8.90643310546875 15.78596019744873 C 13.26605319976807 15.78596019744873 16.81286239624023 12.46948051452637 16.81286239624023 8.392980575561523 C 16.81286239624023 4.31648063659668 13.26605319976807 1.000000953674316 8.90643310546875 1.000000953674316 M 8.90643310546875 0 C 13.8253231048584 0 17.81286239624023 3.757660865783691 17.81286239624023 8.392980575561523 C 17.81286239624023 13.02829074859619 13.8253231048584 16.78596115112305 8.90643310546875 16.78596115112305 C 3.987543106079102 16.78596115112305 3.814697265625e-06 13.02829074859619 3.814697265625e-06 8.392980575561523 C 3.814697265625e-06 3.757660865783691 3.987543106079102 0 8.90643310546875 0 Z"/></g><ellipse class="c" cx="9" cy="8.481" rx="9" ry="8.481" transform="translate(27)"/></svg>