<svg xmlns="http://www.w3.org/2000/svg" xmlns:xlink="http://www.w3.org/1999/xlink" width="64.619" height="64.618" viewBox="0 0 64.619 64.618"><defs><style>.a{fill:#fff;}.b{fill:#4caf50;}.c{fill:#efefef;}.d{filter:url(#a);}</style><filter id="a" x="0" y="0" width="64.619" height="64.618" filterUnits="userSpaceOnUse"><feOffset dy="3" input="SourceAlpha"/><feGaussianBlur stdDeviation="3" result="b"/><feFlood flood-opacity="0.161"/><feComposite operator="in" in2="b"/><feComposite in="SourceGraphic"/></filter></defs><g transform="translate(9 6)"><g class="d" transform="matrix(1, 0, 0, 1, -9, -6)"><path class="a" d="M39.859,6.7A23.585,23.585,0,0,0,23.4,0C5.585,0-5.6,19.3,3.294,34.649L0,46.618,12.305,43.41a24.4,24.4,0,0,0,11.1,2.811c20.654,0,30.935-24.988,16.421-39.445Z" transform="translate(9 6)"/></g><path class="b" d="M21.432,40.4l-.012,0h-.031a19.572,19.572,0,0,1-10.518-3.1L3.587,39.193l1.952-7.08-.464-.728A19.169,19.169,0,0,1,2.13,21.167C2.13,4.088,23-4.453,35.08,7.619,47.129,19.565,38.669,40.4,21.432,40.4Z" transform="translate(2.007 1.852)"/><path class="c" d="M28.374,21.8l-.017.146c-.585-.291-3.432-1.684-3.963-1.876-1.191-.441-.855-.07-3.141,2.548-.34.379-.678.408-1.255.146a15.765,15.765,0,0,1-4.668-2.885,17.623,17.623,0,0,1-3.224-4.021c-.569-.983.622-1.123,1.705-3.174a1.068,1.068,0,0,0-.049-1.018c-.146-.291-1.305-3.147-1.791-4.285-.466-1.134-.946-.991-1.305-.991a2.891,2.891,0,0,0-2.657.668c-3.135,3.446-2.345,7,.338,10.781,5.272,6.9,8.081,8.17,13.216,9.934a8.036,8.036,0,0,0,3.652.235c1.115-.177,3.432-1.4,3.916-2.77a4.808,4.808,0,0,0,.35-2.768c-.144-.262-.524-.408-1.107-.67Z" transform="translate(5.632 5.987)"/></g></svg>